  0
SECTION
  2
HEADER
  9
$ACADVER
  1
AC1009
  9
$EXTMIN
 10
0.0
 20
0.0
 30
0.0
  9
$EXTMAX
 10
1000.0
 20
1000.0
 30
0.0
  9
$FILLMODE
 70
 0
  9
$SPLFRAME
 70
 1
  0
ENDSEC
  0
SECTION
  2
TABLES
  0
TABLE
  2
LAYER
 70
1
  0
LAYER
  2
0
 70
     0
 62
     7
  6
CONTINUOUS
  0
ENDTAB
  0
ENDSEC
  0
SECTION
  2
ENTITIES
  0
POLYLINE
  8
0
 62
     0
 66
     1
 10
0
 20
0
 30
0.0
 70
     1
 40
0.008
 41
0.008
  0
VERTEX
  8
0
 10
0.325792
 20
3.89046
 30
0.0
 40
0.000111111
 41
0.000111111
  0
VERTEX
  8
0
 10
0.286079
 20
3.8865
 30
0.0
 40
0.000111111
 41
0.000111111
  0
VERTEX
  8
0
 10
0.249132
 20
3.875
 30
0.0
 40
0.000111111
 41
0.000111111
  0
VERTEX
  8
0
 10
0.215711
 20
3.85688
 30
0.0
 40
0.000111111
 41
0.000111111
  0
VERTEX
  8
0
 10
0.186578
 20
3.83285
 30
0.0
 40
0.000111111
 41
0.000111111
  0
VERTEX
  8
0
 10
0.162543
 20
3.80371
 30
0.0
 40
0.000111111
 41
0.000111111
  0
VERTEX
  8
0
 10
0.144422
 20
3.77024
 30
0.0
 40
0.000111111
 41
0.000111111
  0
VERTEX
  8
0
 10
0.132921
 20
3.73329
 30
0.0
 40
0.000111111
 41
0.000111111
  0
VERTEX
  8
0
 10
0.128961
 20
3.69363
 30
0.0
 40
0.000111111
 41
0.000111111
  0
VERTEX
  8
0
 10
0.137261
 20
3.63656
 30
0.0
 40
0.000111111
 41
0.000111111
  0
VERTEX
  8
0
 10
0.160861
 20
3.58599
 30
0.0
 40
0.000111111
 41
0.000111111
  0
VERTEX
  8
0
 10
0.160861
 20
2.05404
 30
0.0
 40
0.000111111
 41
0.000111111
  0
VERTEX
  8
0
 10
0.137261
 20
2.00353
 30
0.0
 40
0.000111111
 41
0.000111111
  0
VERTEX
  8
0
 10
0.128961
 20
1.9464
 30
0.0
 40
0.000111111
 41
0.000111111
  0
VERTEX
  8
0
 10
0.132921
 20
1.90674
 30
0.0
 40
0.000111111
 41
0.000111111
  0
VERTEX
  8
0
 10
0.144422
 20
1.86979
 30
0.0
 40
0.000111111
 41
0.000111111
  0
VERTEX
  8
0
 10
0.162543
 20
1.83637
 30
0.0
 40
0.000111111
 41
0.000111111
  0
VERTEX
  8
0
 10
0.186578
 20
1.80718
 30
0.0
 40
0.000111111
 41
0.000111111
  0
VERTEX
  8
0
 10
0.215711
 20
1.78315
 30
0.0
 40
0.000111111
 41
0.000111111
  0
VERTEX
  8
0
 10
0.249132
 20
1.76503
 30
0.0
 40
0.000111111
 41
0.000111111
  0
VERTEX
  8
0
 10
0.286079
 20
1.75353
 30
0.0
 40
0.000111111
 41
0.000111111
  0
VERTEX
  8
0
 10
0.325792
 20
1.74951
 30
0.0
 40
0.000111111
 41
0.000111111
  0
VERTEX
  8
0
 10
0.365451
 20
1.75353
 30
0.0
 40
0.000111111
 41
0.000111111
  0
VERTEX
  8
0
 10
0.402399
 20
1.76503
 30
0.0
 40
0.000111111
 41
0.000111111
  0
VERTEX
  8
0
 10
0.435818
 20
1.78315
 30
0.0
 40
0.000111111
 41
0.000111111
  0
VERTEX
  8
0
 10
0.465007
 20
1.80718
 30
0.0
 40
0.000111111
 41
0.000111111
  0
VERTEX
  8
0
 10
0.48904
 20
1.83637
 30
0.0
 40
0.000111111
 41
0.000111111
  0
VERTEX
  8
0
 10
0.507161
 20
1.86979
 30
0.0
 40
0.000111111
 41
0.000111111
  0
VERTEX
  8
0
 10
0.518664
 20
1.90674
 30
0.0
 40
0.000111111
 41
0.000111111
  0
VERTEX
  8
0
 10
0.522678
 20
1.9464
 30
0.0
 40
0.000111111
 41
0.000111111
  0
VERTEX
  8
0
 10
0.513075
 20
2.00683
 30
0.0
 40
0.000111111
 41
0.000111111
  0
VERTEX
  8
0
 10
0.4866
 20
2.05957
 30
0.0
 40
0.000111111
 41
0.000111111
  0
VERTEX
  8
0
 10
0.4866
 20
3.5804
 30
0.0
 40
0.000111111
 41
0.000111111
  0
VERTEX
  8
0
 10
0.513075
 20
3.63325
 30
0.0
 40
0.000111111
 41
0.000111111
  0
VERTEX
  8
0
 10
0.522678
 20
3.69363
 30
0.0
 40
0.000111111
 41
0.000111111
  0
VERTEX
  8
0
 10
0.518664
 20
3.73329
 30
0.0
 40
0.000111111
 41
0.000111111
  0
VERTEX
  8
0
 10
0.507161
 20
3.77024
 30
0.0
 40
0.000111111
 41
0.000111111
  0
VERTEX
  8
0
 10
0.48904
 20
3.80371
 30
0.0
 40
0.000111111
 41
0.000111111
  0
VERTEX
  8
0
 10
0.465007
 20
3.83285
 30
0.0
 40
0.000111111
 41
0.000111111
  0
VERTEX
  8
0
 10
0.435818
 20
3.85688
 30
0.0
 40
0.000111111
 41
0.000111111
  0
VERTEX
  8
0
 10
0.402399
 20
3.875
 30
0.0
 40
0.000111111
 41
0.000111111
  0
VERTEX
  8
0
 10
0.365451
 20
3.8865
 30
0.0
 40
0.000111111
 41
0.000111111
  0
VERTEX
  8
0
 10
0.325792
 20
3.89046
 30
0.0
 40
0.000111111
 41
0.000111111
  0
SEQEND
 8
0
  0
POLYLINE
  8
0
 62
     0
 66
     1
 10
0
 20
0
 30
0.0
 70
     1
 40
0.008
 41
0.008
  0
VERTEX
  8
0
 10
0.325792
 20
3.76237
 30
0.0
 40
0.000111111
 41
0.000111111
  0
VERTEX
  8
0
 10
0.352593
 20
3.757
 30
0.0
 40
0.000111111
 41
0.000111111
  0
VERTEX
  8
0
 10
0.374457
 20
3.74229
 30
0.0
 40
0.000111111
 41
0.000111111
  0
VERTEX
  8
0
 10
0.38916
 20
3.72043
 30
0.0
 40
0.000111111
 41
0.000111111
  0
VERTEX
  8
0
 10
0.394586
 20
3.69363
 30
0.0
 40
0.000111111
 41
0.000111111
  0
VERTEX
  8
0
 10
0.38916
 20
3.66678
 30
0.0
 40
0.000111111
 41
0.000111111
  0
VERTEX
  8
0
 10
0.374457
 20
3.64481
 30
0.0
 40
0.000111111
 41
0.000111111
  0
VERTEX
  8
0
 10
0.352593
 20
3.62999
 30
0.0
 40
0.000111111
 41
0.000111111
  0
VERTEX
  8
0
 10
0.325792
 20
3.62451
 30
0.0
 40
0.000111111
 41
0.000111111
  0
VERTEX
  8
0
 10
0.298936
 20
3.62999
 30
0.0
 40
0.000111111
 41
0.000111111
  0
VERTEX
  8
0
 10
0.276964
 20
3.64481
 30
0.0
 40
0.000111111
 41
0.000111111
  0
VERTEX
  8
0
 10
0.262153
 20
3.66678
 30
0.0
 40
0.000111111
 41
0.000111111
  0
VERTEX
  8
0
 10
0.256728
 20
3.69363
 30
0.0
 40
0.000111111
 41
0.000111111
  0
VERTEX
  8
0
 10
0.262153
 20
3.72043
 30
0.0
 40
0.000111111
 41
0.000111111
  0
VERTEX
  8
0
 10
0.276964
 20
3.74229
 30
0.0
 40
0.000111111
 41
0.000111111
  0
VERTEX
  8
0
 10
0.298936
 20
3.757
 30
0.0
 40
0.000111111
 41
0.000111111
  0
VERTEX
  8
0
 10
0.325792
 20
3.76237
 30
0.0
 40
0.000111111
 41
0.000111111
  0
SEQEND
 8
0
  0
POLYLINE
  8
0
 62
     0
 66
     1
 10
0
 20
0
 30
0.0
 70
     1
 40
0.008
 41
0.008
  0
VERTEX
  8
0
 10
0.325792
 20
2.01514
 30
0.0
 40
0.000111111
 41
0.000111111
  0
VERTEX
  8
0
 10
0.352593
 20
2.00976
 30
0.0
 40
0.000111111
 41
0.000111111
  0
VERTEX
  8
0
 10
0.374457
 20
1.99507
 30
0.0
 40
0.000111111
 41
0.000111111
  0
VERTEX
  8
0
 10
0.38916
 20
1.97319
 30
0.0
 40
0.000111111
 41
0.000111111
  0
VERTEX
  8
0
 10
0.394586
 20
1.9464
 30
0.0
 40
0.000111111
 41
0.000111111
  0
VERTEX
  8
0
 10
0.38916
 20
1.91954
 30
0.0
 40
0.000111111
 41
0.000111111
  0
VERTEX
  8
0
 10
0.374457
 20
1.89757
 30
0.0
 40
0.000111111
 41
0.000111111
  0
VERTEX
  8
0
 10
0.352593
 20
1.88276
 30
0.0
 40
0.000111111
 41
0.000111111
  0
VERTEX
  8
0
 10
0.325792
 20
1.87728
 30
0.0
 40
0.000111111
 41
0.000111111
  0
VERTEX
  8
0
 10
0.298936
 20
1.88276
 30
0.0
 40
0.000111111
 41
0.000111111
  0
VERTEX
  8
0
 10
0.276964
 20
1.89757
 30
0.0
 40
0.000111111
 41
0.000111111
  0
VERTEX
  8
0
 10
0.262153
 20
1.91954
 30
0.0
 40
0.000111111
 41
0.000111111
  0
VERTEX
  8
0
 10
0.256728
 20
1.9464
 30
0.0
 40
0.000111111
 41
0.000111111
  0
VERTEX
  8
0
 10
0.262153
 20
1.97319
 30
0.0
 40
0.000111111
 41
0.000111111
  0
VERTEX
  8
0
 10
0.276964
 20
1.99507
 30
0.0
 40
0.000111111
 41
0.000111111
  0
VERTEX
  8
0
 10
0.298936
 20
2.00976
 30
0.0
 40
0.000111111
 41
0.000111111
  0
VERTEX
  8
0
 10
0.325792
 20
2.01514
 30
0.0
 40
0.000111111
 41
0.000111111
  0
SEQEND
 8
0
  0
POLYLINE
  8
0
 62
     0
 66
     1
 10
0
 20
0
 30
0.0
 70
     1
 40
0.008
 41
0.008
  0
VERTEX
  8
0
 10
0.919706
 20
3.90776
 30
0.0
 40
0.000111111
 41
0.000111111
  0
VERTEX
  8
0
 10
0.879992
 20
3.90381
 30
0.0
 40
0.000111111
 41
0.000111111
  0
VERTEX
  8
0
 10
0.843044
 20
3.89231
 30
0.0
 40
0.000111111
 41
0.000111111
  0
VERTEX
  8
0
 10
0.809625
 20
3.87418
 30
0.0
 40
0.000111111
 41
0.000111111
  0
VERTEX
  8
0
 10
0.78049
 20
3.8501
 30
0.0
 40
0.000111111
 41
0.000111111
  0
VERTEX
  8
0
 10
0.756401
 20
3.82096
 30
0.0
 40
0.000111111
 41
0.000111111
  0
VERTEX
  8
0
 10
0.738281
 20
3.78754
 30
0.0
 40
0.000111111
 41
0.000111111
  0
VERTEX
  8
0
 10
0.726779
 20
3.7506
 30
0.0
 40
0.000111111
 41
0.000111111
  0
VERTEX
  8
0
 10
0.722819
 20
3.71089
 30
0.0
 40
0.000111111
 41
0.000111111
  0
VERTEX
  8
0
 10
0.731174
 20
3.65381
 30
0.0
 40
0.000111111
 41
0.000111111
  0
VERTEX
  8
0
 10
0.754775
 20
3.60325
 30
0.0
 40
0.000111111
 41
0.000111111
  0
VERTEX
  8
0
 10
0.754775
 20
2.07135
 30
0.0
 40
0.000111111
 41
0.000111111
  0
VERTEX
  8
0
 10
0.731174
 20
2.02089
 30
0.0
 40
0.000111111
 41
0.000111111
  0
VERTEX
  8
0
 10
0.722819
 20
1.96371
 30
0.0
 40
0.000111111
 41
0.000111111
  0
VERTEX
  8
0
 10
0.726779
 20
1.92404
 30
0.0
 40
0.000111111
 41
0.000111111
  0
VERTEX
  8
0
 10
0.738281
 20
1.8871
 30
0.0
 40
0.000111111
 41
0.000111111
  0
VERTEX
  8
0
 10
0.756401
 20
1.85368
 30
0.0
 40
0.000111111
 41
0.000111111
  0
VERTEX
  8
0
 10
0.78049
 20
1.82449
 30
0.0
 40
0.000111111
 41
0.000111111
  0
VERTEX
  8
0
 10
0.809625
 20
1.80046
 30
0.0
 40
0.000111111
 41
0.000111111
  0
VERTEX
  8
0
 10
0.843044
 20
1.78233
 30
0.0
 40
0.000111111
 41
0.000111111
  0
VERTEX
  8
0
 10
0.879992
 20
1.77083
 30
0.0
 40
0.000111111
 41
0.000111111
  0
VERTEX
  8
0
 10
0.919706
 20
1.76682
 30
0.0
 40
0.000111111
 41
0.000111111
  0
VERTEX
  8
0
 10
0.959364
 20
1.77083
 30
0.0
 40
0.000111111
 41
0.000111111
  0
VERTEX
  8
0
 10
0.996311
 20
1.78233
 30
0.0
 40
0.000111111
 41
0.000111111
  0
VERTEX
  8
0
 10
1.02973
 20
1.80046
 30
0.0
 40
0.000111111
 41
0.000111111
  0
VERTEX
  8
0
 10
1.05887
 20
1.82449
 30
0.0
 40
0.000111111
 41
0.000111111
  0
VERTEX
  8
0
 10
1.0829
 20
1.85368
 30
0.0
 40
0.000111111
 41
0.000111111
  0
VERTEX
  8
0
 10
1.10102
 20
1.8871
 30
0.0
 40
0.000111111
 41
0.000111111
  0
VERTEX
  8
0
 10
1.11252
 20
1.92404
 30
0.0
 40
0.000111111
 41
0.000111111
  0
VERTEX
  8
0
 10
1.11654
 20
1.96371
 30
0.0
 40
0.000111111
 41
0.000111111
  0
VERTEX
  8
0
 10
1.10693
 20
2.02408
 30
0.0
 40
0.000111111
 41
0.000111111
  0
VERTEX
  8
0
 10
1.08046
 20
2.07688
 30
0.0
 40
0.000111111
 41
0.000111111
  0
VERTEX
  8
0
 10
1.08046
 20
3.59771
 30
0.0
 40
0.000111111
 41
0.000111111
  0
VERTEX
  8
0
 10
1.10693
 20
3.65056
 30
0.0
 40
0.000111111
 41
0.000111111
  0
VERTEX
  8
0
 10
1.11654
 20
3.71089
 30
0.0
 40
0.000111111
 41
0.000111111
  0
VERTEX
  8
0
 10
1.11252
 20
3.7506
 30
0.0
 40
0.000111111
 41
0.000111111
  0
VERTEX
  8
0
 10
1.10102
 20
3.78754
 30
0.0
 40
0.000111111
 41
0.000111111
  0
VERTEX
  8
0
 10
1.0829
 20
3.82096
 30
0.0
 40
0.000111111
 41
0.000111111
  0
VERTEX
  8
0
 10
1.05887
 20
3.8501
 30
0.0
 40
0.000111111
 41
0.000111111
  0
VERTEX
  8
0
 10
1.02973
 20
3.87418
 30
0.0
 40
0.000111111
 41
0.000111111
  0
VERTEX
  8
0
 10
0.996311
 20
3.89231
 30
0.0
 40
0.000111111
 41
0.000111111
  0
VERTEX
  8
0
 10
0.959364
 20
3.90381
 30
0.0
 40
0.000111111
 41
0.000111111
  0
VERTEX
  8
0
 10
0.919706
 20
3.90776
 30
0.0
 40
0.000111111
 41
0.000111111
  0
SEQEND
 8
0
  0
POLYLINE
  8
0
 62
     0
 66
     1
 10
0
 20
0
 30
0.0
 70
     1
 40
0.008
 41
0.008
  0
VERTEX
  8
0
 10
0.919706
 20
3.77968
 30
0.0
 40
0.000111111
 41
0.000111111
  0
VERTEX
  8
0
 10
0.946451
 20
3.77431
 30
0.0
 40
0.000111111
 41
0.000111111
  0
VERTEX
  8
0
 10
0.968317
 20
3.7596
 30
0.0
 40
0.000111111
 41
0.000111111
  0
VERTEX
  8
0
 10
0.983018
 20
3.73774
 30
0.0
 40
0.000111111
 41
0.000111111
  0
VERTEX
  8
0
 10
0.988444
 20
3.71089
 30
0.0
 40
0.000111111
 41
0.000111111
  0
VERTEX
  8
0
 10
0.983018
 20
3.68408
 30
0.0
 40
0.000111111
 41
0.000111111
  0
VERTEX
  8
0
 10
0.968317
 20
3.66211
 30
0.0
 40
0.000111111
 41
0.000111111
  0
VERTEX
  8
0
 10
0.946451
 20
3.64729
 30
0.0
 40
0.000111111
 41
0.000111111
  0
VERTEX
  8
0
 10
0.919706
 20
3.64182
 30
0.0
 40
0.000111111
 41
0.000111111
  0
VERTEX
  8
0
 10
0.892794
 20
3.64729
 30
0.0
 40
0.000111111
 41
0.000111111
  0
VERTEX
  8
0
 10
0.870822
 20
3.66211
 30
0.0
 40
0.000111111
 41
0.000111111
  0
VERTEX
  8
0
 10
0.856011
 20
3.68408
 30
0.0
 40
0.000111111
 41
0.000111111
  0
VERTEX
  8
0
 10
0.850586
 20
3.71089
 30
0.0
 40
0.000111111
 41
0.000111111
  0
VERTEX
  8
0
 10
0.856011
 20
3.73774
 30
0.0
 40
0.000111111
 41
0.000111111
  0
VERTEX
  8
0
 10
0.870822
 20
3.7596
 30
0.0
 40
0.000111111
 41
0.000111111
  0
VERTEX
  8
0
 10
0.892794
 20
3.77431
 30
0.0
 40
0.000111111
 41
0.000111111
  0
VERTEX
  8
0
 10
0.919706
 20
3.77968
 30
0.0
 40
0.000111111
 41
0.000111111
  0
SEQEND
 8
0
  0
POLYLINE
  8
0
 62
     0
 66
     1
 10
0
 20
0
 30
0.0
 70
     1
 40
0.008
 41
0.008
  0
VERTEX
  8
0
 10
0.919706
 20
2.0325
 30
0.0
 40
0.000111111
 41
0.000111111
  0
VERTEX
  8
0
 10
0.946451
 20
2.02713
 30
0.0
 40
0.000111111
 41
0.000111111
  0
VERTEX
  8
0
 10
0.968317
 20
2.01243
 30
0.0
 40
0.000111111
 41
0.000111111
  0
VERTEX
  8
0
 10
0.983018
 20
1.99056
 30
0.0
 40
0.000111111
 41
0.000111111
  0
VERTEX
  8
0
 10
0.988444
 20
1.96371
 30
0.0
 40
0.000111111
 41
0.000111111
  0
VERTEX
  8
0
 10
0.983018
 20
1.93685
 30
0.0
 40
0.000111111
 41
0.000111111
  0
VERTEX
  8
0
 10
0.968317
 20
1.91488
 30
0.0
 40
0.000111111
 41
0.000111111
  0
VERTEX
  8
0
 10
0.946451
 20
1.90007
 30
0.0
 40
0.000111111
 41
0.000111111
  0
VERTEX
  8
0
 10
0.919706
 20
1.89458
 30
0.0
 40
0.000111111
 41
0.000111111
  0
VERTEX
  8
0
 10
0.892794
 20
1.90007
 30
0.0
 40
0.000111111
 41
0.000111111
  0
VERTEX
  8
0
 10
0.870822
 20
1.91488
 30
0.0
 40
0.000111111
 41
0.000111111
  0
VERTEX
  8
0
 10
0.856011
 20
1.93685
 30
0.0
 40
0.000111111
 41
0.000111111
  0
VERTEX
  8
0
 10
0.850586
 20
1.96371
 30
0.0
 40
0.000111111
 41
0.000111111
  0
VERTEX
  8
0
 10
0.856011
 20
1.99056
 30
0.0
 40
0.000111111
 41
0.000111111
  0
VERTEX
  8
0
 10
0.870822
 20
2.01243
 30
0.0
 40
0.000111111
 41
0.000111111
  0
VERTEX
  8
0
 10
0.892794
 20
2.02713
 30
0.0
 40
0.000111111
 41
0.000111111
  0
VERTEX
  8
0
 10
0.919706
 20
2.0325
 30
0.0
 40
0.000111111
 41
0.000111111
  0
SEQEND
 8
0
  0
POLYLINE
  8
0
 62
     0
 66
     1
 10
0
 20
0
 30
0.0
 70
     1
 40
0.008
 41
0.008
  0
VERTEX
  8
0
 10
1.53347
 20
3.89649
 30
0.0
 40
0.000111111
 41
0.000111111
  0
VERTEX
  8
0
 10
1.49376
 20
3.89253
 30
0.0
 40
0.000111111
 41
0.000111111
  0
VERTEX
  8
0
 10
1.45682
 20
3.88103
 30
0.0
 40
0.000111111
 41
0.000111111
  0
VERTEX
  8
0
 10
1.42339
 20
3.86285
 30
0.0
 40
0.000111111
 41
0.000111111
  0
VERTEX
  8
0
 10
1.39426
 20
3.83882
 30
0.0
 40
0.000111111
 41
0.000111111
  0
VERTEX
  8
0
 10
1.37017
 20
3.80968
 30
0.0
 40
0.000111111
 41
0.000111111
  0
VERTEX
  8
0
 10
1.35205
 20
3.77621
 30
0.0
 40
0.000111111
 41
0.000111111
  0
VERTEX
  8
0
 10
1.34055
 20
3.73926
 30
0.0
 40
0.000111111
 41
0.000111111
  0
VERTEX
  8
0
 10
1.33659
 20
3.69954
 30
0.0
 40
0.000111111
 41
0.000111111
  0
VERTEX
  8
0
 10
1.34494
 20
3.64247
 30
0.0
 40
0.000111111
 41
0.000111111
  0
VERTEX
  8
0
 10
1.36854
 20
3.5919
 30
0.0
 40
0.000111111
 41
0.000111111
  0
VERTEX
  8
0
 10
1.36854
 20
2.05994
 30
0.0
 40
0.000111111
 41
0.000111111
  0
VERTEX
  8
0
 10
1.34494
 20
2.0095
 30
0.0
 40
0.000111111
 41
0.000111111
  0
VERTEX
  8
0
 10
1.33659
 20
1.95231
 30
0.0
 40
0.000111111
 41
0.000111111
  0
VERTEX
  8
0
 10
1.34055
 20
1.91265
 30
0.0
 40
0.000111111
 41
0.000111111
  0
VERTEX
  8
0
 10
1.35205
 20
1.87571
 30
0.0
 40
0.000111111
 41
0.000111111
  0
VERTEX
  8
0
 10
1.37017
 20
1.84229
 30
0.0
 40
0.000111111
 41
0.000111111
  0
VERTEX
  8
0
 10
1.39426
 20
1.8131
 30
0.0
 40
0.000111111
 41
0.000111111
  0
VERTEX
  8
0
 10
1.42339
 20
1.78906
 30
0.0
 40
0.000111111
 41
0.000111111
  0
VERTEX
  8
0
 10
1.45682
 20
1.77094
 30
0.0
 40
0.000111111
 41
0.000111111
  0
VERTEX
  8
0
 10
1.49376
 20
1.75944
 30
0.0
 40
0.000111111
 41
0.000111111
  0
VERTEX
  8
0
 10
1.53347
 20
1.75543
 30
0.0
 40
0.000111111
 41
0.000111111
  0
VERTEX
  8
0
 10
1.57314
 20
1.75944
 30
0.0
 40
0.000111111
 41
0.000111111
  0
VERTEX
  8
0
 10
1.61008
 20
1.77094
 30
0.0
 40
0.000111111
 41
0.000111111
  0
VERTEX
  8
0
 10
1.6435
 20
1.78906
 30
0.0
 40
0.000111111
 41
0.000111111
  0
VERTEX
  8
0
 10
1.67269
 20
1.8131
 30
0.0
 40
0.000111111
 41
0.000111111
  0
VERTEX
  8
0
 10
1.69672
 20
1.84229
 30
0.0
 40
0.000111111
 41
0.000111111
  0
VERTEX
  8
0
 10
1.71485
 20
1.87571
 30
0.0
 40
0.000111111
 41
0.000111111
  0
VERTEX
  8
0
 10
1.72635
 20
1.91265
 30
0.0
 40
0.000111111
 41
0.000111111
  0
VERTEX
  8
0
 10
1.73036
 20
1.95231
 30
0.0
 40
0.000111111
 41
0.000111111
  0
VERTEX
  8
0
 10
1.72076
 20
2.01275
 30
0.0
 40
0.000111111
 41
0.000111111
  0
VERTEX
  8
0
 10
1.69422
 20
2.06554
 30
0.0
 40
0.000111111
 41
0.000111111
  0
VERTEX
  8
0
 10
1.69422
 20
3.58637
 30
0.0
 40
0.000111111
 41
0.000111111
  0
VERTEX
  8
0
 10
1.72076
 20
3.63917
 30
0.0
 40
0.000111111
 41
0.000111111
  0
VERTEX
  8
0
 10
1.73036
 20
3.69954
 30
0.0
 40
0.000111111
 41
0.000111111
  0
VERTEX
  8
0
 10
1.72635
 20
3.73926
 30
0.0
 40
0.000111111
 41
0.000111111
  0
VERTEX
  8
0
 10
1.71485
 20
3.77621
 30
0.0
 40
0.000111111
 41
0.000111111
  0
VERTEX
  8
0
 10
1.69672
 20
3.80968
 30
0.0
 40
0.000111111
 41
0.000111111
  0
VERTEX
  8
0
 10
1.67269
 20
3.83882
 30
0.0
 40
0.000111111
 41
0.000111111
  0
VERTEX
  8
0
 10
1.6435
 20
3.86285
 30
0.0
 40
0.000111111
 41
0.000111111
  0
VERTEX
  8
0
 10
1.61008
 20
3.88103
 30
0.0
 40
0.000111111
 41
0.000111111
  0
VERTEX
  8
0
 10
1.57314
 20
3.89253
 30
0.0
 40
0.000111111
 41
0.000111111
  0
VERTEX
  8
0
 10
1.53347
 20
3.89649
 30
0.0
 40
0.000111111
 41
0.000111111
  0
SEQEND
 8
0
  0
POLYLINE
  8
0
 62
     0
 66
     1
 10
0
 20
0
 30
0.0
 70
     1
 40
0.008
 41
0.008
  0
VERTEX
  8
0
 10
1.53347
 20
3.76828
 30
0.0
 40
0.000111111
 41
0.000111111
  0
VERTEX
  8
0
 10
1.56022
 20
3.76292
 30
0.0
 40
0.000111111
 41
0.000111111
  0
VERTEX
  8
0
 10
1.58208
 20
3.74821
 30
0.0
 40
0.000111111
 41
0.000111111
  0
VERTEX
  8
0
 10
1.59679
 20
3.72635
 30
0.0
 40
0.000111111
 41
0.000111111
  0
VERTEX
  8
0
 10
1.60221
 20
3.69954
 30
0.0
 40
0.000111111
 41
0.000111111
  0
VERTEX
  8
0
 10
1.59679
 20
3.67275
 30
0.0
 40
0.000111111
 41
0.000111111
  0
VERTEX
  8
0
 10
1.58208
 20
3.65076
 30
0.0
 40
0.000111111
 41
0.000111111
  0
VERTEX
  8
0
 10
1.56022
 20
3.6359
 30
0.0
 40
0.000111111
 41
0.000111111
  0
VERTEX
  8
0
 10
1.53347
 20
3.63043
 30
0.0
 40
0.000111111
 41
0.000111111
  0
VERTEX
  8
0
 10
1.50662
 20
3.6359
 30
0.0
 40
0.000111111
 41
0.000111111
  0
VERTEX
  8
0
 10
1.48465
 20
3.65076
 30
0.0
 40
0.000111111
 41
0.000111111
  0
VERTEX
  8
0
 10
1.46978
 20
3.67275
 30
0.0
 40
0.000111111
 41
0.000111111
  0
VERTEX
  8
0
 10
1.46436
 20
3.69954
 30
0.0
 40
0.000111111
 41
0.000111111
  0
VERTEX
  8
0
 10
1.46978
 20
3.72635
 30
0.0
 40
0.000111111
 41
0.000111111
  0
VERTEX
  8
0
 10
1.48465
 20
3.74821
 30
0.0
 40
0.000111111
 41
0.000111111
  0
VERTEX
  8
0
 10
1.50662
 20
3.76292
 30
0.0
 40
0.000111111
 41
0.000111111
  0
VERTEX
  8
0
 10
1.53347
 20
3.76828
 30
0.0
 40
0.000111111
 41
0.000111111
  0
SEQEND
 8
0
  0
POLYLINE
  8
0
 62
     0
 66
     1
 10
0
 20
0
 30
0.0
 70
     1
 40
0.008
 41
0.008
  0
VERTEX
  8
0
 10
1.53347
 20
2.02106
 30
0.0
 40
0.000111111
 41
0.000111111
  0
VERTEX
  8
0
 10
1.56022
 20
2.01568
 30
0.0
 40
0.000111111
 41
0.000111111
  0
VERTEX
  8
0
 10
1.58208
 20
2.00097
 30
0.0
 40
0.000111111
 41
0.000111111
  0
VERTEX
  8
0
 10
1.59679
 20
1.97911
 30
0.0
 40
0.000111111
 41
0.000111111
  0
VERTEX
  8
0
 10
1.60221
 20
1.95231
 30
0.0
 40
0.000111111
 41
0.000111111
  0
VERTEX
  8
0
 10
1.59679
 20
1.92551
 30
0.0
 40
0.000111111
 41
0.000111111
  0
VERTEX
  8
0
 10
1.58208
 20
1.90354
 30
0.0
 40
0.000111111
 41
0.000111111
  0
VERTEX
  8
0
 10
1.56022
 20
1.88872
 30
0.0
 40
0.000111111
 41
0.000111111
  0
VERTEX
  8
0
 10
1.53347
 20
1.88325
 30
0.0
 40
0.000111111
 41
0.000111111
  0
VERTEX
  8
0
 10
1.50662
 20
1.88872
 30
0.0
 40
0.000111111
 41
0.000111111
  0
VERTEX
  8
0
 10
1.48465
 20
1.90354
 30
0.0
 40
0.000111111
 41
0.000111111
  0
VERTEX
  8
0
 10
1.46978
 20
1.92551
 30
0.0
 40
0.000111111
 41
0.000111111
  0
VERTEX
  8
0
 10
1.46436
 20
1.95231
 30
0.0
 40
0.000111111
 41
0.000111111
  0
VERTEX
  8
0
 10
1.46978
 20
1.97911
 30
0.0
 40
0.000111111
 41
0.000111111
  0
VERTEX
  8
0
 10
1.48465
 20
2.00097
 30
0.0
 40
0.000111111
 41
0.000111111
  0
VERTEX
  8
0
 10
1.50662
 20
2.01568
 30
0.0
 40
0.000111111
 41
0.000111111
  0
VERTEX
  8
0
 10
1.53347
 20
2.02106
 30
0.0
 40
0.000111111
 41
0.000111111
  0
SEQEND
 8
0
  0
POLYLINE
  8
0
 62
     0
 66
     1
 10
0
 20
0
 30
0.0
 70
     1
 40
0.008
 41
0.008
  0
VERTEX
  8
0
 10
2.15864
 20
3.88504
 30
0.0
 40
0.000111111
 41
0.000111111
  0
VERTEX
  8
0
 10
2.11892
 20
3.88108
 30
0.0
 40
0.000111111
 41
0.000111111
  0
VERTEX
  8
0
 10
2.08197
 20
3.86957
 30
0.0
 40
0.000111111
 41
0.000111111
  0
VERTEX
  8
0
 10
2.04856
 20
3.85146
 30
0.0
 40
0.000111111
 41
0.000111111
  0
VERTEX
  8
0
 10
2.01942
 20
3.82742
 30
0.0
 40
0.000111111
 41
0.000111111
  0
VERTEX
  8
0
 10
1.99533
 20
3.79829
 30
0.0
 40
0.000111111
 41
0.000111111
  0
VERTEX
  8
0
 10
1.97721
 20
3.76481
 30
0.0
 40
0.000111111
 41
0.000111111
  0
VERTEX
  8
0
 10
1.96571
 20
3.72786
 30
0.0
 40
0.000111111
 41
0.000111111
  0
VERTEX
  8
0
 10
1.96175
 20
3.68815
 30
0.0
 40
0.000111111
 41
0.000111111
  0
VERTEX
  8
0
 10
1.97011
 20
3.63108
 30
0.0
 40
0.000111111
 41
0.000111111
  0
VERTEX
  8
0
 10
1.99371
 20
3.58051
 30
0.0
 40
0.000111111
 41
0.000111111
  0
VERTEX
  8
0
 10
1.99371
 20
2.04867
 30
0.0
 40
0.000111111
 41
0.000111111
  0
VERTEX
  8
0
 10
1.97011
 20
1.9981
 30
0.0
 40
0.000111111
 41
0.000111111
  0
VERTEX
  8
0
 10
1.96175
 20
1.94103
 30
0.0
 40
0.000111111
 41
0.000111111
  0
VERTEX
  8
0
 10
1.96571
 20
1.90136
 30
0.0
 40
0.000111111
 41
0.000111111
  0
VERTEX
  8
0
 10
1.97721
 20
1.86436
 30
0.0
 40
0.000111111
 41
0.000111111
  0
VERTEX
  8
0
 10
1.99533
 20
1.83094
 30
0.0
 40
0.000111111
 41
0.000111111
  0
VERTEX
  8
0
 10
2.01942
 20
1.80181
 30
0.0
 40
0.000111111
 41
0.000111111
  0
VERTEX
  8
0
 10
2.04856
 20
1.77772
 30
0.0
 40
0.000111111
 41
0.000111111
  0
VERTEX
  8
0
 10
2.08197
 20
1.7596
 30
0.0
 40
0.000111111
 41
0.000111111
  0
VERTEX
  8
0
 10
2.11892
 20
1.7481
 30
0.0
 40
0.000111111
 41
0.000111111
  0
VERTEX
  8
0
 10
2.15864
 20
1.74408
 30
0.0
 40
0.000111111
 41
0.000111111
  0
VERTEX
  8
0
 10
2.19829
 20
1.7481
 30
0.0
 40
0.000111111
 41
0.000111111
  0
VERTEX
  8
0
 10
2.23525
 20
1.7596
 30
0.0
 40
0.000111111
 41
0.000111111
  0
VERTEX
  8
0
 10
2.26867
 20
1.77772
 30
0.0
 40
0.000111111
 41
0.000111111
  0
VERTEX
  8
0
 10
2.29785
 20
1.80181
 30
0.0
 40
0.000111111
 41
0.000111111
  0
VERTEX
  8
0
 10
2.32189
 20
1.83094
 30
0.0
 40
0.000111111
 41
0.000111111
  0
VERTEX
  8
0
 10
2.34
 20
1.86436
 30
0.0
 40
0.000111111
 41
0.000111111
  0
VERTEX
  8
0
 10
2.35151
 20
1.90136
 30
0.0
 40
0.000111111
 41
0.000111111
  0
VERTEX
  8
0
 10
2.35553
 20
1.94103
 30
0.0
 40
0.000111111
 41
0.000111111
  0
VERTEX
  8
0
 10
2.34592
 20
2.00136
 30
0.0
 40
0.000111111
 41
0.000111111
  0
VERTEX
  8
0
 10
2.31939
 20
2.05414
 30
0.0
 40
0.000111111
 41
0.000111111
  0
VERTEX
  8
0
 10
2.31939
 20
3.57497
 30
0.0
 40
0.000111111
 41
0.000111111
  0
VERTEX
  8
0
 10
2.34592
 20
3.62782
 30
0.0
 40
0.000111111
 41
0.000111111
  0
VERTEX
  8
0
 10
2.35553
 20
3.68815
 30
0.0
 40
0.000111111
 41
0.000111111
  0
VERTEX
  8
0
 10
2.35151
 20
3.72786
 30
0.0
 40
0.000111111
 41
0.000111111
  0
VERTEX
  8
0
 10
2.34
 20
3.76481
 30
0.0
 40
0.000111111
 41
0.000111111
  0
VERTEX
  8
0
 10
2.32189
 20
3.79829
 30
0.0
 40
0.000111111
 41
0.000111111
  0
VERTEX
  8
0
 10
2.29785
 20
3.82742
 30
0.0
 40
0.000111111
 41
0.000111111
  0
VERTEX
  8
0
 10
2.26867
 20
3.85146
 30
0.0
 40
0.000111111
 41
0.000111111
  0
VERTEX
  8
0
 10
2.23525
 20
3.86957
 30
0.0
 40
0.000111111
 41
0.000111111
  0
VERTEX
  8
0
 10
2.19829
 20
3.88108
 30
0.0
 40
0.000111111
 41
0.000111111
  0
VERTEX
  8
0
 10
2.15864
 20
3.88504
 30
0.0
 40
0.000111111
 41
0.000111111
  0
SEQEND
 8
0
  0
POLYLINE
  8
0
 62
     0
 66
     1
 10
0
 20
0
 30
0.0
 70
     1
 40
0.008
 41
0.008
  0
VERTEX
  8
0
 10
2.15864
 20
3.757
 30
0.0
 40
0.000111111
 41
0.000111111
  0
VERTEX
  8
0
 10
2.18539
 20
3.75163
 30
0.0
 40
0.000111111
 41
0.000111111
  0
VERTEX
  8
0
 10
2.20725
 20
3.73687
 30
0.0
 40
0.000111111
 41
0.000111111
  0
VERTEX
  8
0
 10
2.22194
 20
3.715
 30
0.0
 40
0.000111111
 41
0.000111111
  0
VERTEX
  8
0
 10
2.22738
 20
3.68815
 30
0.0
 40
0.000111111
 41
0.000111111
  0
VERTEX
  8
0
 10
2.22194
 20
3.66135
 30
0.0
 40
0.000111111
 41
0.000111111
  0
VERTEX
  8
0
 10
2.20725
 20
3.63938
 30
0.0
 40
0.000111111
 41
0.000111111
  0
VERTEX
  8
0
 10
2.18539
 20
3.62457
 30
0.0
 40
0.000111111
 41
0.000111111
  0
VERTEX
  8
0
 10
2.15864
 20
3.61908
 30
0.0
 40
0.000111111
 41
0.000111111
  0
VERTEX
  8
0
 10
2.13172
 20
3.62457
 30
0.0
 40
0.000111111
 41
0.000111111
  0
VERTEX
  8
0
 10
2.10975
 20
3.63938
 30
0.0
 40
0.000111111
 41
0.000111111
  0
VERTEX
  8
0
 10
2.09494
 20
3.66135
 30
0.0
 40
0.000111111
 41
0.000111111
  0
VERTEX
  8
0
 10
2.08951
 20
3.68815
 30
0.0
 40
0.000111111
 41
0.000111111
  0
VERTEX
  8
0
 10
2.09494
 20
3.715
 30
0.0
 40
0.000111111
 41
0.000111111
  0
VERTEX
  8
0
 10
2.10975
 20
3.73687
 30
0.0
 40
0.000111111
 41
0.000111111
  0
VERTEX
  8
0
 10
2.13172
 20
3.75163
 30
0.0
 40
0.000111111
 41
0.000111111
  0
VERTEX
  8
0
 10
2.15864
 20
3.757
 30
0.0
 40
0.000111111
 41
0.000111111
  0
SEQEND
 8
0
  0
POLYLINE
  8
0
 62
     0
 66
     1
 10
0
 20
0
 30
0.0
 70
     1
 40
0.008
 41
0.008
  0
VERTEX
  8
0
 10
2.15864
 20
2.00971
 30
0.0
 40
0.000111111
 41
0.000111111
  0
VERTEX
  8
0
 10
2.18539
 20
2.00433
 30
0.0
 40
0.000111111
 41
0.000111111
  0
VERTEX
  8
0
 10
2.20725
 20
1.98964
 30
0.0
 40
0.000111111
 41
0.000111111
  0
VERTEX
  8
0
 10
2.22194
 20
1.96783
 30
0.0
 40
0.000111111
 41
0.000111111
  0
VERTEX
  8
0
 10
2.22738
 20
1.94103
 30
0.0
 40
0.000111111
 41
0.000111111
  0
VERTEX
  8
0
 10
2.22194
 20
1.91417
 30
0.0
 40
0.000111111
 41
0.000111111
  0
VERTEX
  8
0
 10
2.20725
 20
1.89214
 30
0.0
 40
0.000111111
 41
0.000111111
  0
VERTEX
  8
0
 10
2.18539
 20
1.87733
 30
0.0
 40
0.000111111
 41
0.000111111
  0
VERTEX
  8
0
 10
2.15864
 20
1.87185
 30
0.0
 40
0.000111111
 41
0.000111111
  0
VERTEX
  8
0
 10
2.13172
 20
1.87733
 30
0.0
 40
0.000111111
 41
0.000111111
  0
VERTEX
  8
0
 10
2.10975
 20
1.89214
 30
0.0
 40
0.000111111
 41
0.000111111
  0
VERTEX
  8
0
 10
2.09494
 20
1.91417
 30
0.0
 40
0.000111111
 41
0.000111111
  0
VERTEX
  8
0
 10
2.08951
 20
1.94103
 30
0.0
 40
0.000111111
 41
0.000111111
  0
VERTEX
  8
0
 10
2.09494
 20
1.96783
 30
0.0
 40
0.000111111
 41
0.000111111
  0
VERTEX
  8
0
 10
2.10975
 20
1.98964
 30
0.0
 40
0.000111111
 41
0.000111111
  0
VERTEX
  8
0
 10
2.13172
 20
2.00433
 30
0.0
 40
0.000111111
 41
0.000111111
  0
VERTEX
  8
0
 10
2.15864
 20
2.00971
 30
0.0
 40
0.000111111
 41
0.000111111
  0
SEQEND
 8
0
  0
POLYLINE
  8
0
 62
     0
 66
     1
 10
0
 20
0
 30
0.0
 70
     1
 40
0.008
 41
0.008
  0
VERTEX
  8
0
 10
2.7724
 20
3.85097
 30
0.0
 40
0.000111111
 41
0.000111111
  0
VERTEX
  8
0
 10
2.73269
 20
3.847
 30
0.0
 40
0.000111111
 41
0.000111111
  0
VERTEX
  8
0
 10
2.69575
 20
3.8355
 30
0.0
 40
0.000111111
 41
0.000111111
  0
VERTEX
  8
0
 10
2.66233
 20
3.81739
 30
0.0
 40
0.000111111
 41
0.000111111
  0
VERTEX
  8
0
 10
2.63319
 20
3.79329
 30
0.0
 40
0.000111111
 41
0.000111111
  0
VERTEX
  8
0
 10
2.6091
 20
3.76417
 30
0.0
 40
0.000111111
 41
0.000111111
  0
VERTEX
  8
0
 10
2.59099
 20
3.73074
 30
0.0
 40
0.000111111
 41
0.000111111
  0
VERTEX
  8
0
 10
2.57949
 20
3.69379
 30
0.0
 40
0.000111111
 41
0.000111111
  0
VERTEX
  8
0
 10
2.57553
 20
3.65408
 30
0.0
 40
0.000111111
 41
0.000111111
  0
VERTEX
  8
0
 10
2.58388
 20
3.59694
 30
0.0
 40
0.000111111
 41
0.000111111
  0
VERTEX
  8
0
 10
2.60747
 20
3.54644
 30
0.0
 40
0.000111111
 41
0.000111111
  0
VERTEX
  8
0
 10
2.60747
 20
2.01454
 30
0.0
 40
0.000111111
 41
0.000111111
  0
VERTEX
  8
0
 10
2.58388
 20
1.96397
 30
0.0
 40
0.000111111
 41
0.000111111
  0
VERTEX
  8
0
 10
2.57553
 20
1.9069
 30
0.0
 40
0.000111111
 41
0.000111111
  0
VERTEX
  8
0
 10
2.57949
 20
1.86724
 30
0.0
 40
0.000111111
 41
0.000111111
  0
VERTEX
  8
0
 10
2.59099
 20
1.83024
 30
0.0
 40
0.000111111
 41
0.000111111
  0
VERTEX
  8
0
 10
2.6091
 20
1.79682
 30
0.0
 40
0.000111111
 41
0.000111111
  0
VERTEX
  8
0
 10
2.63319
 20
1.76768
 30
0.0
 40
0.000111111
 41
0.000111111
  0
VERTEX
  8
0
 10
2.66233
 20
1.7436
 30
0.0
 40
0.000111111
 41
0.000111111
  0
VERTEX
  8
0
 10
2.69575
 20
1.72547
 30
0.0
 40
0.000111111
 41
0.000111111
  0
VERTEX
  8
0
 10
2.73269
 20
1.71397
 30
0.0
 40
0.000111111
 41
0.000111111
  0
VERTEX
  8
0
 10
2.7724
 20
1.70996
 30
0.0
 40
0.000111111
 41
0.000111111
  0
VERTEX
  8
0
 10
2.81207
 20
1.71397
 30
0.0
 40
0.000111111
 41
0.000111111
  0
VERTEX
  8
0
 10
2.84901
 20
1.72547
 30
0.0
 40
0.000111111
 41
0.000111111
  0
VERTEX
  8
0
 10
2.88243
 20
1.7436
 30
0.0
 40
0.000111111
 41
0.000111111
  0
VERTEX
  8
0
 10
2.91162
 20
1.76768
 30
0.0
 40
0.000111111
 41
0.000111111
  0
VERTEX
  8
0
 10
2.93565
 20
1.79682
 30
0.0
 40
0.000111111
 41
0.000111111
  0
VERTEX
  8
0
 10
2.95378
 20
1.83024
 30
0.0
 40
0.000111111
 41
0.000111111
  0
VERTEX
  8
0
 10
2.96528
 20
1.86724
 30
0.0
 40
0.000111111
 41
0.000111111
  0
VERTEX
  8
0
 10
2.96929
 20
1.9069
 30
0.0
 40
0.000111111
 41
0.000111111
  0
VERTEX
  8
0
 10
2.95969
 20
1.96729
 30
0.0
 40
0.000111111
 41
0.000111111
  0
VERTEX
  8
0
 10
2.93317
 20
2.02001
 30
0.0
 40
0.000111111
 41
0.000111111
  0
VERTEX
  8
0
 10
2.93317
 20
3.54085
 30
0.0
 40
0.000111111
 41
0.000111111
  0
VERTEX
  8
0
 10
2.95969
 20
3.59369
 30
0.0
 40
0.000111111
 41
0.000111111
  0
VERTEX
  8
0
 10
2.96929
 20
3.65408
 30
0.0
 40
0.000111111
 41
0.000111111
  0
VERTEX
  8
0
 10
2.96528
 20
3.69379
 30
0.0
 40
0.000111111
 41
0.000111111
  0
VERTEX
  8
0
 10
2.95378
 20
3.73074
 30
0.0
 40
0.000111111
 41
0.000111111
  0
VERTEX
  8
0
 10
2.93565
 20
3.76417
 30
0.0
 40
0.000111111
 41
0.000111111
  0
VERTEX
  8
0
 10
2.91162
 20
3.79329
 30
0.0
 40
0.000111111
 41
0.000111111
  0
VERTEX
  8
0
 10
2.88243
 20
3.81739
 30
0.0
 40
0.000111111
 41
0.000111111
  0
VERTEX
  8
0
 10
2.84901
 20
3.8355
 30
0.0
 40
0.000111111
 41
0.000111111
  0
VERTEX
  8
0
 10
2.81207
 20
3.847
 30
0.0
 40
0.000111111
 41
0.000111111
  0
VERTEX
  8
0
 10
2.7724
 20
3.85097
 30
0.0
 40
0.000111111
 41
0.000111111
  0
SEQEND
 8
0
  0
POLYLINE
  8
0
 62
     0
 66
     1
 10
0
 20
0
 30
0.0
 70
     1
 40
0.008
 41
0.008
  0
VERTEX
  8
0
 10
2.7724
 20
3.72287
 30
0.0
 40
0.000111111
 41
0.000111111
  0
VERTEX
  8
0
 10
2.79915
 20
3.7175
 30
0.0
 40
0.000111111
 41
0.000111111
  0
VERTEX
  8
0
 10
2.82101
 20
3.70275
 30
0.0
 40
0.000111111
 41
0.000111111
  0
VERTEX
  8
0
 10
2.83572
 20
3.68088
 30
0.0
 40
0.000111111
 41
0.000111111
  0
VERTEX
  8
0
 10
2.84114
 20
3.65408
 30
0.0
 40
0.000111111
 41
0.000111111
  0
VERTEX
  8
0
 10
2.83572
 20
3.62728
 30
0.0
 40
0.000111111
 41
0.000111111
  0
VERTEX
  8
0
 10
2.82101
 20
3.60531
 30
0.0
 40
0.000111111
 41
0.000111111
  0
VERTEX
  8
0
 10
2.79915
 20
3.59044
 30
0.0
 40
0.000111111
 41
0.000111111
  0
VERTEX
  8
0
 10
2.7724
 20
3.58496
 30
0.0
 40
0.000111111
 41
0.000111111
  0
VERTEX
  8
0
 10
2.74556
 20
3.59044
 30
0.0
 40
0.000111111
 41
0.000111111
  0
VERTEX
  8
0
 10
2.72358
 20
3.60531
 30
0.0
 40
0.000111111
 41
0.000111111
  0
VERTEX
  8
0
 10
2.70876
 20
3.62728
 30
0.0
 40
0.000111111
 41
0.000111111
  0
VERTEX
  8
0
 10
2.70335
 20
3.65408
 30
0.0
 40
0.000111111
 41
0.000111111
  0
VERTEX
  8
0
 10
2.70876
 20
3.68088
 30
0.0
 40
0.000111111
 41
0.000111111
  0
VERTEX
  8
0
 10
2.72358
 20
3.70275
 30
0.0
 40
0.000111111
 41
0.000111111
  0
VERTEX
  8
0
 10
2.74556
 20
3.7175
 30
0.0
 40
0.000111111
 41
0.000111111
  0
VERTEX
  8
0
 10
2.7724
 20
3.72287
 30
0.0
 40
0.000111111
 41
0.000111111
  0
SEQEND
 8
0
  0
POLYLINE
  8
0
 62
     0
 66
     1
 10
0
 20
0
 30
0.0
 70
     1
 40
0.008
 41
0.008
  0
VERTEX
  8
0
 10
2.7724
 20
1.97558
 30
0.0
 40
0.000111111
 41
0.000111111
  0
VERTEX
  8
0
 10
2.79915
 20
1.97021
 30
0.0
 40
0.000111111
 41
0.000111111
  0
VERTEX
  8
0
 10
2.82101
 20
1.95551
 30
0.0
 40
0.000111111
 41
0.000111111
  0
VERTEX
  8
0
 10
2.83572
 20
1.93371
 30
0.0
 40
0.000111111
 41
0.000111111
  0
VERTEX
  8
0
 10
2.84114
 20
1.9069
 30
0.0
 40
0.000111111
 41
0.000111111
  0
VERTEX
  8
0
 10
2.83572
 20
1.88004
 30
0.0
 40
0.000111111
 41
0.000111111
  0
VERTEX
  8
0
 10
2.82101
 20
1.85807
 30
0.0
 40
0.000111111
 41
0.000111111
  0
VERTEX
  8
0
 10
2.79915
 20
1.84321
 30
0.0
 40
0.000111111
 41
0.000111111
  0
VERTEX
  8
0
 10
2.7724
 20
1.83772
 30
0.0
 40
0.000111111
 41
0.000111111
  0
VERTEX
  8
0
 10
2.74556
 20
1.84321
 30
0.0
 40
0.000111111
 41
0.000111111
  0
VERTEX
  8
0
 10
2.72358
 20
1.85807
 30
0.0
 40
0.000111111
 41
0.000111111
  0
VERTEX
  8
0
 10
2.70876
 20
1.88004
 30
0.0
 40
0.000111111
 41
0.000111111
  0
VERTEX
  8
0
 10
2.70335
 20
1.9069
 30
0.0
 40
0.000111111
 41
0.000111111
  0
VERTEX
  8
0
 10
2.70876
 20
1.93371
 30
0.0
 40
0.000111111
 41
0.000111111
  0
VERTEX
  8
0
 10
2.72358
 20
1.95551
 30
0.0
 40
0.000111111
 41
0.000111111
  0
VERTEX
  8
0
 10
2.74556
 20
1.97021
 30
0.0
 40
0.000111111
 41
0.000111111
  0
VERTEX
  8
0
 10
2.7724
 20
1.97558
 30
0.0
 40
0.000111111
 41
0.000111111
  0
SEQEND
 8
0
  0
POLYLINE
  8
0
 62
     0
 66
     1
 10
0
 20
0
 30
0.0
 70
     1
 40
0.008
 41
0.008
  0
VERTEX
  8
0
 10
3.37483
 20
3.83957
 30
0.0
 40
0.000111111
 41
0.000111111
  0
VERTEX
  8
0
 10
3.33512
 20
3.83561
 30
0.0
 40
0.000111111
 41
0.000111111
  0
VERTEX
  8
0
 10
3.29818
 20
3.82411
 30
0.0
 40
0.000111111
 41
0.000111111
  0
VERTEX
  8
0
 10
3.26475
 20
3.80599
 30
0.0
 40
0.000111111
 41
0.000111111
  0
VERTEX
  8
0
 10
3.23562
 20
3.7819
 30
0.0
 40
0.000111111
 41
0.000111111
  0
VERTEX
  8
0
 10
3.21153
 20
3.75276
 30
0.0
 40
0.000111111
 41
0.000111111
  0
VERTEX
  8
0
 10
3.19342
 20
3.71935
 30
0.0
 40
0.000111111
 41
0.000111111
  0
VERTEX
  8
0
 10
3.18192
 20
3.6824
 30
0.0
 40
0.000111111
 41
0.000111111
  0
VERTEX
  8
0
 10
3.17794
 20
3.64268
 30
0.0
 40
0.000111111
 41
0.000111111
  0
VERTEX
  8
0
 10
3.18631
 20
3.58561
 30
0.0
 40
0.000111111
 41
0.000111111
  0
VERTEX
  8
0
 10
3.2099
 20
3.53504
 30
0.0
 40
0.000111111
 41
0.000111111
  0
VERTEX
  8
0
 10
3.2099
 20
2.00315
 30
0.0
 40
0.000111111
 41
0.000111111
  0
VERTEX
  8
0
 10
3.18631
 20
1.95264
 30
0.0
 40
0.000111111
 41
0.000111111
  0
VERTEX
  8
0
 10
3.17794
 20
1.89551
 30
0.0
 40
0.000111111
 41
0.000111111
  0
VERTEX
  8
0
 10
3.18192
 20
1.85585
 30
0.0
 40
0.000111111
 41
0.000111111
  0
VERTEX
  8
0
 10
3.19342
 20
1.8189
 30
0.0
 40
0.000111111
 41
0.000111111
  0
VERTEX
  8
0
 10
3.21153
 20
1.78549
 30
0.0
 40
0.000111111
 41
0.000111111
  0
VERTEX
  8
0
 10
3.23562
 20
1.75629
 30
0.0
 40
0.000111111
 41
0.000111111
  0
VERTEX
  8
0
 10
3.26475
 20
1.73226
 30
0.0
 40
0.000111111
 41
0.000111111
  0
VERTEX
  8
0
 10
3.29818
 20
1.71414
 30
0.0
 40
0.000111111
 41
0.000111111
  0
VERTEX
  8
0
 10
3.33512
 20
1.70264
 30
0.0
 40
0.000111111
 41
0.000111111
  0
VERTEX
  8
0
 10
3.37483
 20
1.69863
 30
0.0
 40
0.000111111
 41
0.000111111
  0
VERTEX
  8
0
 10
3.4145
 20
1.70264
 30
0.0
 40
0.000111111
 41
0.000111111
  0
VERTEX
  8
0
 10
3.45144
 20
1.71414
 30
0.0
 40
0.000111111
 41
0.000111111
  0
VERTEX
  8
0
 10
3.48486
 20
1.73226
 30
0.0
 40
0.000111111
 41
0.000111111
  0
VERTEX
  8
0
 10
3.51406
 20
1.75629
 30
0.0
 40
0.000111111
 41
0.000111111
  0
VERTEX
  8
0
 10
3.53808
 20
1.78549
 30
0.0
 40
0.000111111
 41
0.000111111
  0
VERTEX
  8
0
 10
3.55621
 20
1.8189
 30
0.0
 40
0.000111111
 41
0.000111111
  0
VERTEX
  8
0
 10
3.56771
 20
1.85585
 30
0.0
 40
0.000111111
 41
0.000111111
  0
VERTEX
  8
0
 10
3.57172
 20
1.89551
 30
0.0
 40
0.000111111
 41
0.000111111
  0
VERTEX
  8
0
 10
3.56212
 20
1.95589
 30
0.0
 40
0.000111111
 41
0.000111111
  0
VERTEX
  8
0
 10
3.53558
 20
2.00874
 30
0.0
 40
0.000111111
 41
0.000111111
  0
VERTEX
  8
0
 10
3.53558
 20
3.52957
 30
0.0
 40
0.000111111
 41
0.000111111
  0
VERTEX
  8
0
 10
3.56212
 20
3.58236
 30
0.0
 40
0.000111111
 41
0.000111111
  0
VERTEX
  8
0
 10
3.57172
 20
3.64268
 30
0.0
 40
0.000111111
 41
0.000111111
  0
VERTEX
  8
0
 10
3.56771
 20
3.6824
 30
0.0
 40
0.000111111
 41
0.000111111
  0
VERTEX
  8
0
 10
3.55621
 20
3.71935
 30
0.0
 40
0.000111111
 41
0.000111111
  0
VERTEX
  8
0
 10
3.53808
 20
3.75276
 30
0.0
 40
0.000111111
 41
0.000111111
  0
VERTEX
  8
0
 10
3.51406
 20
3.7819
 30
0.0
 40
0.000111111
 41
0.000111111
  0
VERTEX
  8
0
 10
3.48486
 20
3.80599
 30
0.0
 40
0.000111111
 41
0.000111111
  0
VERTEX
  8
0
 10
3.45144
 20
3.82411
 30
0.0
 40
0.000111111
 41
0.000111111
  0
VERTEX
  8
0
 10
3.4145
 20
3.83561
 30
0.0
 40
0.000111111
 41
0.000111111
  0
VERTEX
  8
0
 10
3.37483
 20
3.83957
 30
0.0
 40
0.000111111
 41
0.000111111
  0
SEQEND
 8
0
  0
POLYLINE
  8
0
 62
     0
 66
     1
 10
0
 20
0
 30
0.0
 70
     1
 40
0.008
 41
0.008
  0
VERTEX
  8
0
 10
3.37483
 20
3.71149
 30
0.0
 40
0.000111111
 41
0.000111111
  0
VERTEX
  8
0
 10
3.40158
 20
3.70611
 30
0.0
 40
0.000111111
 41
0.000111111
  0
VERTEX
  8
0
 10
3.42344
 20
3.6914
 30
0.0
 40
0.000111111
 41
0.000111111
  0
VERTEX
  8
0
 10
3.43815
 20
3.66954
 30
0.0
 40
0.000111111
 41
0.000111111
  0
VERTEX
  8
0
 10
3.44358
 20
3.64268
 30
0.0
 40
0.000111111
 41
0.000111111
  0
VERTEX
  8
0
 10
3.43815
 20
3.61589
 30
0.0
 40
0.000111111
 41
0.000111111
  0
VERTEX
  8
0
 10
3.42344
 20
3.59392
 30
0.0
 40
0.000111111
 41
0.000111111
  0
VERTEX
  8
0
 10
3.40158
 20
3.5791
 30
0.0
 40
0.000111111
 41
0.000111111
  0
VERTEX
  8
0
 10
3.37483
 20
3.57362
 30
0.0
 40
0.000111111
 41
0.000111111
  0
VERTEX
  8
0
 10
3.34799
 20
3.5791
 30
0.0
 40
0.000111111
 41
0.000111111
  0
VERTEX
  8
0
 10
3.32601
 20
3.59392
 30
0.0
 40
0.000111111
 41
0.000111111
  0
VERTEX
  8
0
 10
3.31114
 20
3.61589
 30
0.0
 40
0.000111111
 41
0.000111111
  0
VERTEX
  8
0
 10
3.30572
 20
3.64268
 30
0.0
 40
0.000111111
 41
0.000111111
  0
VERTEX
  8
0
 10
3.31114
 20
3.66954
 30
0.0
 40
0.000111111
 41
0.000111111
  0
VERTEX
  8
0
 10
3.32601
 20
3.6914
 30
0.0
 40
0.000111111
 41
0.000111111
  0
VERTEX
  8
0
 10
3.34799
 20
3.70611
 30
0.0
 40
0.000111111
 41
0.000111111
  0
VERTEX
  8
0
 10
3.37483
 20
3.71149
 30
0.0
 40
0.000111111
 41
0.000111111
  0
SEQEND
 8
0
  0
POLYLINE
  8
0
 62
     0
 66
     1
 10
0
 20
0
 30
0.0
 70
     1
 40
0.008
 41
0.008
  0
VERTEX
  8
0
 10
3.37483
 20
1.96425
 30
0.0
 40
0.000111111
 41
0.000111111
  0
VERTEX
  8
0
 10
3.40158
 20
1.95888
 30
0.0
 40
0.000111111
 41
0.000111111
  0
VERTEX
  8
0
 10
3.42344
 20
1.94417
 30
0.0
 40
0.000111111
 41
0.000111111
  0
VERTEX
  8
0
 10
3.43815
 20
1.92231
 30
0.0
 40
0.000111111
 41
0.000111111
  0
VERTEX
  8
0
 10
3.44358
 20
1.89551
 30
0.0
 40
0.000111111
 41
0.000111111
  0
VERTEX
  8
0
 10
3.43815
 20
1.86865
 30
0.0
 40
0.000111111
 41
0.000111111
  0
VERTEX
  8
0
 10
3.42344
 20
1.84674
 30
0.0
 40
0.000111111
 41
0.000111111
  0
VERTEX
  8
0
 10
3.40158
 20
1.83192
 30
0.0
 40
0.000111111
 41
0.000111111
  0
VERTEX
  8
0
 10
3.37483
 20
1.82644
 30
0.0
 40
0.000111111
 41
0.000111111
  0
VERTEX
  8
0
 10
3.34799
 20
1.83192
 30
0.0
 40
0.000111111
 41
0.000111111
  0
VERTEX
  8
0
 10
3.32601
 20
1.84674
 30
0.0
 40
0.000111111
 41
0.000111111
  0
VERTEX
  8
0
 10
3.31114
 20
1.86865
 30
0.0
 40
0.000111111
 41
0.000111111
  0
VERTEX
  8
0
 10
3.30572
 20
1.89551
 30
0.0
 40
0.000111111
 41
0.000111111
  0
VERTEX
  8
0
 10
3.31114
 20
1.92231
 30
0.0
 40
0.000111111
 41
0.000111111
  0
VERTEX
  8
0
 10
3.32601
 20
1.94417
 30
0.0
 40
0.000111111
 41
0.000111111
  0
VERTEX
  8
0
 10
3.34799
 20
1.95888
 30
0.0
 40
0.000111111
 41
0.000111111
  0
VERTEX
  8
0
 10
3.37483
 20
1.96425
 30
0.0
 40
0.000111111
 41
0.000111111
  0
SEQEND
 8
0
  0
POLYLINE
  8
0
 62
     0
 66
     1
 10
0
 20
0
 30
0.0
 70
     1
 40
0.008
 41
0.008
  0
VERTEX
  8
0
 10
4.02289
 20
3.82406
 30
0.0
 40
0.000111111
 41
0.000111111
  0
VERTEX
  8
0
 10
3.98318
 20
3.8201
 30
0.0
 40
0.000111111
 41
0.000111111
  0
VERTEX
  8
0
 10
3.94624
 20
3.8086
 30
0.0
 40
0.000111111
 41
0.000111111
  0
VERTEX
  8
0
 10
3.91282
 20
3.79047
 30
0.0
 40
0.000111111
 41
0.000111111
  0
VERTEX
  8
0
 10
3.88368
 20
3.76639
 30
0.0
 40
0.000111111
 41
0.000111111
  0
VERTEX
  8
0
 10
3.8596
 20
3.73725
 30
0.0
 40
0.000111111
 41
0.000111111
  0
VERTEX
  8
0
 10
3.84147
 20
3.70383
 30
0.0
 40
0.000111111
 41
0.000111111
  0
VERTEX
  8
0
 10
3.82997
 20
3.66689
 30
0.0
 40
0.000111111
 41
0.000111111
  0
VERTEX
  8
0
 10
3.82601
 20
3.62717
 30
0.0
 40
0.000111111
 41
0.000111111
  0
VERTEX
  8
0
 10
3.83436
 20
3.5701
 30
0.0
 40
0.000111111
 41
0.000111111
  0
VERTEX
  8
0
 10
3.85796
 20
3.51953
 30
0.0
 40
0.000111111
 41
0.000111111
  0
VERTEX
  8
0
 10
3.85796
 20
1.98757
 30
0.0
 40
0.000111111
 41
0.000111111
  0
VERTEX
  8
0
 10
3.83436
 20
1.93713
 30
0.0
 40
0.000111111
 41
0.000111111
  0
VERTEX
  8
0
 10
3.82601
 20
1.87993
 30
0.0
 40
0.000111111
 41
0.000111111
  0
VERTEX
  8
0
 10
3.83192
 20
1.83203
 30
0.0
 40
0.000111111
 41
0.000111111
  0
VERTEX
  8
0
 10
3.84868
 20
1.78851
 30
0.0
 40
0.000111111
 41
0.000111111
  0
VERTEX
  8
0
 10
3.87489
 20
1.75065
 30
0.0
 40
0.000111111
 41
0.000111111
  0
VERTEX
  8
0
 10
3.90901
 20
1.71989
 30
0.0
 40
0.000111111
 41
0.000111111
  0
VERTEX
  8
0
 10
3.90207
 20
1.67996
 30
0.0
 40
0.000111111
 41
0.000111111
  0
VERTEX
  8
0
 10
3.91157
 20
1.63297
 30
0.0
 40
0.000111111
 41
0.000111111
  0
VERTEX
  8
0
 10
3.93744
 20
1.59457
 30
0.0
 40
0.000111111
 41
0.000111111
  0
VERTEX
  8
0
 10
3.97586
 20
1.56868
 30
0.0
 40
0.000111111
 41
0.000111111
  0
VERTEX
  8
0
 10
4.02289
 20
1.55914
 30
0.0
 40
0.000111111
 41
0.000111111
  0
VERTEX
  8
0
 10
4.06988
 20
1.56868
 30
0.0
 40
0.000111111
 41
0.000111111
  0
VERTEX
  8
0
 10
4.10829
 20
1.59457
 30
0.0
 40
0.000111111
 41
0.000111111
  0
VERTEX
  8
0
 10
4.13417
 20
1.63297
 30
0.0
 40
0.000111111
 41
0.000111111
  0
VERTEX
  8
0
 10
4.14372
 20
1.67996
 30
0.0
 40
0.000111111
 41
0.000111111
  0
VERTEX
  8
0
 10
4.13678
 20
1.71957
 30
0.0
 40
0.000111111
 41
0.000111111
  0
VERTEX
  8
0
 10
4.1709
 20
1.75038
 30
0.0
 40
0.000111111
 41
0.000111111
  0
VERTEX
  8
0
 10
4.19706
 20
1.78836
 30
0.0
 40
0.000111111
 41
0.000111111
  0
VERTEX
  8
0
 10
4.21386
 20
1.83197
 30
0.0
 40
0.000111111
 41
0.000111111
  0
VERTEX
  8
0
 10
4.21978
 20
1.87993
 30
0.0
 40
0.000111111
 41
0.000111111
  0
VERTEX
  8
0
 10
4.21018
 20
1.94038
 30
0.0
 40
0.000111111
 41
0.000111111
  0
VERTEX
  8
0
 10
4.18365
 20
1.99317
 30
0.0
 40
0.000111111
 41
0.000111111
  0
VERTEX
  8
0
 10
4.18365
 20
3.514
 30
0.0
 40
0.000111111
 41
0.000111111
  0
VERTEX
  8
0
 10
4.21018
 20
3.56679
 30
0.0
 40
0.000111111
 41
0.000111111
  0
VERTEX
  8
0
 10
4.21978
 20
3.62717
 30
0.0
 40
0.000111111
 41
0.000111111
  0
VERTEX
  8
0
 10
4.21576
 20
3.66689
 30
0.0
 40
0.000111111
 41
0.000111111
  0
VERTEX
  8
0
 10
4.20426
 20
3.70383
 30
0.0
 40
0.000111111
 41
0.000111111
  0
VERTEX
  8
0
 10
4.18614
 20
3.73725
 30
0.0
 40
0.000111111
 41
0.000111111
  0
VERTEX
  8
0
 10
4.16211
 20
3.76639
 30
0.0
 40
0.000111111
 41
0.000111111
  0
VERTEX
  8
0
 10
4.13292
 20
3.79047
 30
0.0
 40
0.000111111
 41
0.000111111
  0
VERTEX
  8
0
 10
4.0995
 20
3.8086
 30
0.0
 40
0.000111111
 41
0.000111111
  0
VERTEX
  8
0
 10
4.06256
 20
3.8201
 30
0.0
 40
0.000111111
 41
0.000111111
  0
VERTEX
  8
0
 10
4.02289
 20
3.82406
 30
0.0
 40
0.000111111
 41
0.000111111
  0
SEQEND
 8
0
  0
POLYLINE
  8
0
 62
     0
 66
     1
 10
0
 20
0
 30
0.0
 70
     1
 40
0.008
 41
0.008
  0
VERTEX
  8
0
 10
4.02289
 20
3.6959
 30
0.0
 40
0.000111111
 41
0.000111111
  0
VERTEX
  8
0
 10
4.04964
 20
3.69054
 30
0.0
 40
0.000111111
 41
0.000111111
  0
VERTEX
  8
0
 10
4.0715
 20
3.67583
 30
0.0
 40
0.000111111
 41
0.000111111
  0
VERTEX
  8
0
 10
4.08621
 20
3.65397
 30
0.0
 40
0.000111111
 41
0.000111111
  0
VERTEX
  8
0
 10
4.09164
 20
3.62717
 30
0.0
 40
0.000111111
 41
0.000111111
  0
VERTEX
  8
0
 10
4.08621
 20
3.60037
 30
0.0
 40
0.000111111
 41
0.000111111
  0
VERTEX
  8
0
 10
4.0715
 20
3.5784
 30
0.0
 40
0.000111111
 41
0.000111111
  0
VERTEX
  8
0
 10
4.04964
 20
3.56358
 30
0.0
 40
0.000111111
 41
0.000111111
  0
VERTEX
  8
0
 10
4.02289
 20
3.55811
 30
0.0
 40
0.000111111
 41
0.000111111
  0
VERTEX
  8
0
 10
3.99604
 20
3.56358
 30
0.0
 40
0.000111111
 41
0.000111111
  0
VERTEX
  8
0
 10
3.97407
 20
3.5784
 30
0.0
 40
0.000111111
 41
0.000111111
  0
VERTEX
  8
0
 10
3.95919
 20
3.60037
 30
0.0
 40
0.000111111
 41
0.000111111
  0
VERTEX
  8
0
 10
3.95378
 20
3.62717
 30
0.0
 40
0.000111111
 41
0.000111111
  0
VERTEX
  8
0
 10
3.95919
 20
3.65397
 30
0.0
 40
0.000111111
 41
0.000111111
  0
VERTEX
  8
0
 10
3.97407
 20
3.67583
 30
0.0
 40
0.000111111
 41
0.000111111
  0
VERTEX
  8
0
 10
3.99604
 20
3.69054
 30
0.0
 40
0.000111111
 41
0.000111111
  0
VERTEX
  8
0
 10
4.02289
 20
3.6959
 30
0.0
 40
0.000111111
 41
0.000111111
  0
SEQEND
 8
0
  0
POLYLINE
  8
0
 62
     0
 66
     1
 10
0
 20
0
 30
0.0
 70
     1
 40
0.008
 41
0.008
  0
VERTEX
  8
0
 10
4.02251
 20
2.09694
 30
0.0
 40
0.000111111
 41
0.000111111
  0
VERTEX
  8
0
 10
4.03554
 20
2.09153
 30
0.0
 40
0.000111111
 41
0.000111111
  0
VERTEX
  8
0
 10
4.04096
 20
2.07856
 30
0.0
 40
0.000111111
 41
0.000111111
  0
VERTEX
  8
0
 10
4.03554
 20
2.06581
 30
0.0
 40
0.000111111
 41
0.000111111
  0
VERTEX
  8
0
 10
4.02251
 20
2.06049
 30
0.0
 40
0.000111111
 41
0.000111111
  0
VERTEX
  8
0
 10
4.0095
 20
2.06581
 30
0.0
 40
0.000111111
 41
0.000111111
  0
VERTEX
  8
0
 10
4.00412
 20
2.07856
 30
0.0
 40
0.000111111
 41
0.000111111
  0
VERTEX
  8
0
 10
4.0095
 20
2.09153
 30
0.0
 40
0.000111111
 41
0.000111111
  0
VERTEX
  8
0
 10
4.02251
 20
2.09694
 30
0.0
 40
0.000111111
 41
0.000111111
  0
SEQEND
 8
0
  0
POLYLINE
  8
0
 62
     0
 66
     1
 10
0
 20
0
 30
0.0
 70
     1
 40
0.008
 41
0.008
  0
VERTEX
  8
0
 10
4.02289
 20
1.94874
 30
0.0
 40
0.000111111
 41
0.000111111
  0
VERTEX
  8
0
 10
4.04964
 20
1.94336
 30
0.0
 40
0.000111111
 41
0.000111111
  0
VERTEX
  8
0
 10
4.0715
 20
1.92865
 30
0.0
 40
0.000111111
 41
0.000111111
  0
VERTEX
  8
0
 10
4.08621
 20
1.90679
 30
0.0
 40
0.000111111
 41
0.000111111
  0
VERTEX
  8
0
 10
4.09164
 20
1.87993
 30
0.0
 40
0.000111111
 41
0.000111111
  0
VERTEX
  8
0
 10
4.08621
 20
1.85314
 30
0.0
 40
0.000111111
 41
0.000111111
  0
VERTEX
  8
0
 10
4.0715
 20
1.83117
 30
0.0
 40
0.000111111
 41
0.000111111
  0
VERTEX
  8
0
 10
4.04964
 20
1.81635
 30
0.0
 40
0.000111111
 41
0.000111111
  0
VERTEX
  8
0
 10
4.02289
 20
1.81087
 30
0.0
 40
0.000111111
 41
0.000111111
  0
VERTEX
  8
0
 10
3.99604
 20
1.81635
 30
0.0
 40
0.000111111
 41
0.000111111
  0
VERTEX
  8
0
 10
3.97407
 20
1.83117
 30
0.0
 40
0.000111111
 41
0.000111111
  0
VERTEX
  8
0
 10
3.95919
 20
1.85314
 30
0.0
 40
0.000111111
 41
0.000111111
  0
VERTEX
  8
0
 10
3.95378
 20
1.87993
 30
0.0
 40
0.000111111
 41
0.000111111
  0
VERTEX
  8
0
 10
3.95919
 20
1.90679
 30
0.0
 40
0.000111111
 41
0.000111111
  0
VERTEX
  8
0
 10
3.97407
 20
1.92865
 30
0.0
 40
0.000111111
 41
0.000111111
  0
VERTEX
  8
0
 10
3.99604
 20
1.94336
 30
0.0
 40
0.000111111
 41
0.000111111
  0
VERTEX
  8
0
 10
4.02289
 20
1.94874
 30
0.0
 40
0.000111111
 41
0.000111111
  0
SEQEND
 8
0
  0
POLYLINE
  8
0
 62
     0
 66
     1
 10
0
 20
0
 30
0.0
 70
     1
 40
0.008
 41
0.008
  0
VERTEX
  8
0
 10
4.02251
 20
1.697
 30
0.0
 40
0.000111111
 41
0.000111111
  0
VERTEX
  8
0
 10
4.03554
 20
1.69157
 30
0.0
 40
0.000111111
 41
0.000111111
  0
VERTEX
  8
0
 10
4.04096
 20
1.67854
 30
0.0
 40
0.000111111
 41
0.000111111
  0
VERTEX
  8
0
 10
4.03554
 20
1.66581
 30
0.0
 40
0.000111111
 41
0.000111111
  0
VERTEX
  8
0
 10
4.02251
 20
1.66054
 30
0.0
 40
0.000111111
 41
0.000111111
  0
VERTEX
  8
0
 10
4.0095
 20
1.66581
 30
0.0
 40
0.000111111
 41
0.000111111
  0
VERTEX
  8
0
 10
4.00412
 20
1.67854
 30
0.0
 40
0.000111111
 41
0.000111111
  0
VERTEX
  8
0
 10
4.0095
 20
1.69157
 30
0.0
 40
0.000111111
 41
0.000111111
  0
VERTEX
  8
0
 10
4.02251
 20
1.697
 30
0.0
 40
0.000111111
 41
0.000111111
  0
SEQEND
 8
0
  0
POLYLINE
  8
0
 62
     0
 66
     1
 10
0
 20
0
 30
0.0
 70
     1
 40
0.008
 41
0.008
  0
VERTEX
  8
0
 10
4.60465
 20
3.76932
 30
0.0
 40
0.000111111
 41
0.000111111
  0
VERTEX
  8
0
 10
4.56494
 20
3.76535
 30
0.0
 40
0.000111111
 41
0.000111111
  0
VERTEX
  8
0
 10
4.528
 20
3.75385
 30
0.0
 40
0.000111111
 41
0.000111111
  0
VERTEX
  8
0
 10
4.49457
 20
3.73574
 30
0.0
 40
0.000111111
 41
0.000111111
  0
VERTEX
  8
0
 10
4.46544
 20
3.71169
 30
0.0
 40
0.000111111
 41
0.000111111
  0
VERTEX
  8
0
 10
4.44135
 20
3.68257
 30
0.0
 40
0.000111111
 41
0.000111111
  0
VERTEX
  8
0
 10
4.42324
 20
3.64914
 30
0.0
 40
0.000111111
 41
0.000111111
  0
VERTEX
  8
0
 10
4.41174
 20
3.61219
 30
0.0
 40
0.000111111
 41
0.000111111
  0
VERTEX
  8
0
 10
4.40776
 20
3.57249
 30
0.0
 40
0.000111111
 41
0.000111111
  0
VERTEX
  8
0
 10
4.41613
 20
3.51535
 30
0.0
 40
0.000111111
 41
0.000111111
  0
VERTEX
  8
0
 10
4.43972
 20
3.46485
 30
0.0
 40
0.000111111
 41
0.000111111
  0
VERTEX
  8
0
 10
4.43972
 20
1.93294
 30
0.0
 40
0.000111111
 41
0.000111111
  0
VERTEX
  8
0
 10
4.41613
 20
1.88238
 30
0.0
 40
0.000111111
 41
0.000111111
  0
VERTEX
  8
0
 10
4.40776
 20
1.82531
 30
0.0
 40
0.000111111
 41
0.000111111
  0
VERTEX
  8
0
 10
4.41368
 20
1.7774
 30
0.0
 40
0.000111111
 41
0.000111111
  0
VERTEX
  8
0
 10
4.43044
 20
1.73378
 30
0.0
 40
0.000111111
 41
0.000111111
  0
VERTEX
  8
0
 10
4.4566
 20
1.69596
 30
0.0
 40
0.000111111
 41
0.000111111
  0
VERTEX
  8
0
 10
4.49072
 20
1.66515
 30
0.0
 40
0.000111111
 41
0.000111111
  0
VERTEX
  8
0
 10
4.48378
 20
1.62522
 30
0.0
 40
0.000111111
 41
0.000111111
  0
VERTEX
  8
0
 10
4.49328
 20
1.57824
 30
0.0
 40
0.000111111
 41
0.000111111
  0
VERTEX
  8
0
 10
4.51915
 20
1.53982
 30
0.0
 40
0.000111111
 41
0.000111111
  0
VERTEX
  8
0
 10
4.55757
 20
1.51394
 30
0.0
 40
0.000111111
 41
0.000111111
  0
VERTEX
  8
0
 10
4.60465
 20
1.50439
 30
0.0
 40
0.000111111
 41
0.000111111
  0
VERTEX
  8
0
 10
4.65164
 20
1.51394
 30
0.0
 40
0.000111111
 41
0.000111111
  0
VERTEX
  8
0
 10
4.69006
 20
1.53982
 30
0.0
 40
0.000111111
 41
0.000111111
  0
VERTEX
  8
0
 10
4.71593
 20
1.57824
 30
0.0
 40
0.000111111
 41
0.000111111
  0
VERTEX
  8
0
 10
4.72547
 20
1.62522
 30
0.0
 40
0.000111111
 41
0.000111111
  0
VERTEX
  8
0
 10
4.71853
 20
1.66482
 30
0.0
 40
0.000111111
 41
0.000111111
  0
VERTEX
  8
0
 10
4.75265
 20
1.69564
 30
0.0
 40
0.000111111
 41
0.000111111
  0
VERTEX
  8
0
 10
4.77881
 20
1.73361
 30
0.0
 40
0.000111111
 41
0.000111111
  0
VERTEX
  8
0
 10
4.79557
 20
1.77729
 30
0.0
 40
0.000111111
 41
0.000111111
  0
VERTEX
  8
0
 10
4.80149
 20
1.82531
 30
0.0
 40
0.000111111
 41
0.000111111
  0
VERTEX
  8
0
 10
4.79189
 20
1.88569
 30
0.0
 40
0.000111111
 41
0.000111111
  0
VERTEX
  8
0
 10
4.7654
 20
1.93842
 30
0.0
 40
0.000111111
 41
0.000111111
  0
VERTEX
  8
0
 10
4.7654
 20
3.45925
 30
0.0
 40
0.000111111
 41
0.000111111
  0
VERTEX
  8
0
 10
4.79189
 20
3.5121
 30
0.0
 40
0.000111111
 41
0.000111111
  0
VERTEX
  8
0
 10
4.80149
 20
3.57249
 30
0.0
 40
0.000111111
 41
0.000111111
  0
VERTEX
  8
0
 10
4.79747
 20
3.61219
 30
0.0
 40
0.000111111
 41
0.000111111
  0
VERTEX
  8
0
 10
4.78597
 20
3.64914
 30
0.0
 40
0.000111111
 41
0.000111111
  0
VERTEX
  8
0
 10
4.76785
 20
3.68257
 30
0.0
 40
0.000111111
 41
0.000111111
  0
VERTEX
  8
0
 10
4.74382
 20
3.71169
 30
0.0
 40
0.000111111
 41
0.000111111
  0
VERTEX
  8
0
 10
4.71468
 20
3.73574
 30
0.0
 40
0.000111111
 41
0.000111111
  0
VERTEX
  8
0
 10
4.68121
 20
3.75385
 30
0.0
 40
0.000111111
 41
0.000111111
  0
VERTEX
  8
0
 10
4.64426
 20
3.76535
 30
0.0
 40
0.000111111
 41
0.000111111
  0
VERTEX
  8
0
 10
4.60465
 20
3.76932
 30
0.0
 40
0.000111111
 41
0.000111111
  0
SEQEND
 8
0
  0
POLYLINE
  8
0
 62
     0
 66
     1
 10
0
 20
0
 30
0.0
 70
     1
 40
0.008
 41
0.008
  0
VERTEX
  8
0
 10
4.60465
 20
3.64128
 30
0.0
 40
0.000111111
 41
0.000111111
  0
VERTEX
  8
0
 10
4.6314
 20
3.6359
 30
0.0
 40
0.000111111
 41
0.000111111
  0
VERTEX
  8
0
 10
4.65326
 20
3.62115
 30
0.0
 40
0.000111111
 41
0.000111111
  0
VERTEX
  8
0
 10
4.66797
 20
3.59928
 30
0.0
 40
0.000111111
 41
0.000111111
  0
VERTEX
  8
0
 10
4.67339
 20
3.57249
 30
0.0
 40
0.000111111
 41
0.000111111
  0
VERTEX
  8
0
 10
4.66797
 20
3.54563
 30
0.0
 40
0.000111111
 41
0.000111111
  0
VERTEX
  8
0
 10
4.65326
 20
3.52365
 30
0.0
 40
0.000111111
 41
0.000111111
  0
VERTEX
  8
0
 10
4.6314
 20
3.50885
 30
0.0
 40
0.000111111
 41
0.000111111
  0
VERTEX
  8
0
 10
4.60465
 20
3.50336
 30
0.0
 40
0.000111111
 41
0.000111111
  0
VERTEX
  8
0
 10
4.57775
 20
3.50885
 30
0.0
 40
0.000111111
 41
0.000111111
  0
VERTEX
  8
0
 10
4.55578
 20
3.52365
 30
0.0
 40
0.000111111
 41
0.000111111
  0
VERTEX
  8
0
 10
4.54096
 20
3.54563
 30
0.0
 40
0.000111111
 41
0.000111111
  0
VERTEX
  8
0
 10
4.53554
 20
3.57249
 30
0.0
 40
0.000111111
 41
0.000111111
  0
VERTEX
  8
0
 10
4.54096
 20
3.59928
 30
0.0
 40
0.000111111
 41
0.000111111
  0
VERTEX
  8
0
 10
4.55578
 20
3.62115
 30
0.0
 40
0.000111111
 41
0.000111111
  0
VERTEX
  8
0
 10
4.57775
 20
3.6359
 30
0.0
 40
0.000111111
 41
0.000111111
  0
VERTEX
  8
0
 10
4.60465
 20
3.64128
 30
0.0
 40
0.000111111
 41
0.000111111
  0
SEQEND
 8
0
  0
POLYLINE
  8
0
 62
     0
 66
     1
 10
0
 20
0
 30
0.0
 70
     1
 40
0.008
 41
0.008
  0
VERTEX
  8
0
 10
4.60428
 20
2.04232
 30
0.0
 40
0.000111111
 41
0.000111111
  0
VERTEX
  8
0
 10
4.61724
 20
2.03689
 30
0.0
 40
0.000111111
 41
0.000111111
  0
VERTEX
  8
0
 10
4.62267
 20
2.02387
 30
0.0
 40
0.000111111
 41
0.000111111
  0
VERTEX
  8
0
 10
4.61724
 20
2.01112
 30
0.0
 40
0.000111111
 41
0.000111111
  0
VERTEX
  8
0
 10
4.60428
 20
2.00586
 30
0.0
 40
0.000111111
 41
0.000111111
  0
VERTEX
  8
0
 10
4.59125
 20
2.01112
 30
0.0
 40
0.000111111
 41
0.000111111
  0
VERTEX
  8
0
 10
4.58589
 20
2.02387
 30
0.0
 40
0.000111111
 41
0.000111111
  0
VERTEX
  8
0
 10
4.59125
 20
2.03689
 30
0.0
 40
0.000111111
 41
0.000111111
  0
VERTEX
  8
0
 10
4.60428
 20
2.04232
 30
0.0
 40
0.000111111
 41
0.000111111
  0
SEQEND
 8
0
  0
POLYLINE
  8
0
 62
     0
 66
     1
 10
0
 20
0
 30
0.0
 70
     1
 40
0.008
 41
0.008
  0
VERTEX
  8
0
 10
4.60465
 20
1.89399
 30
0.0
 40
0.000111111
 41
0.000111111
  0
VERTEX
  8
0
 10
4.6314
 20
1.88861
 30
0.0
 40
0.000111111
 41
0.000111111
  0
VERTEX
  8
0
 10
4.65326
 20
1.87392
 30
0.0
 40
0.000111111
 41
0.000111111
  0
VERTEX
  8
0
 10
4.66797
 20
1.85211
 30
0.0
 40
0.000111111
 41
0.000111111
  0
VERTEX
  8
0
 10
4.67339
 20
1.82531
 30
0.0
 40
0.000111111
 41
0.000111111
  0
VERTEX
  8
0
 10
4.66797
 20
1.79844
 30
0.0
 40
0.000111111
 41
0.000111111
  0
VERTEX
  8
0
 10
4.65326
 20
1.77642
 30
0.0
 40
0.000111111
 41
0.000111111
  0
VERTEX
  8
0
 10
4.6314
 20
1.76161
 30
0.0
 40
0.000111111
 41
0.000111111
  0
VERTEX
  8
0
 10
4.60465
 20
1.75613
 30
0.0
 40
0.000111111
 41
0.000111111
  0
VERTEX
  8
0
 10
4.57775
 20
1.76161
 30
0.0
 40
0.000111111
 41
0.000111111
  0
VERTEX
  8
0
 10
4.55578
 20
1.77642
 30
0.0
 40
0.000111111
 41
0.000111111
  0
VERTEX
  8
0
 10
4.54096
 20
1.79844
 30
0.0
 40
0.000111111
 41
0.000111111
  0
VERTEX
  8
0
 10
4.53554
 20
1.82531
 30
0.0
 40
0.000111111
 41
0.000111111
  0
VERTEX
  8
0
 10
4.54096
 20
1.85211
 30
0.0
 40
0.000111111
 41
0.000111111
  0
VERTEX
  8
0
 10
4.55578
 20
1.87392
 30
0.0
 40
0.000111111
 41
0.000111111
  0
VERTEX
  8
0
 10
4.57775
 20
1.88861
 30
0.0
 40
0.000111111
 41
0.000111111
  0
VERTEX
  8
0
 10
4.60465
 20
1.89399
 30
0.0
 40
0.000111111
 41
0.000111111
  0
SEQEND
 8
0
  0
POLYLINE
  8
0
 62
     0
 66
     1
 10
0
 20
0
 30
0.0
 70
     1
 40
0.008
 41
0.008
  0
VERTEX
  8
0
 10
4.60428
 20
1.64225
 30
0.0
 40
0.000111111
 41
0.000111111
  0
VERTEX
  8
0
 10
4.61724
 20
1.63683
 30
0.0
 40
0.000111111
 41
0.000111111
  0
VERTEX
  8
0
 10
4.62267
 20
1.62392
 30
0.0
 40
0.000111111
 41
0.000111111
  0
VERTEX
  8
0
 10
4.61724
 20
1.61106
 30
0.0
 40
0.000111111
 41
0.000111111
  0
VERTEX
  8
0
 10
4.60428
 20
1.60579
 30
0.0
 40
0.000111111
 41
0.000111111
  0
VERTEX
  8
0
 10
4.59125
 20
1.61106
 30
0.0
 40
0.000111111
 41
0.000111111
  0
VERTEX
  8
0
 10
4.58589
 20
1.62392
 30
0.0
 40
0.000111111
 41
0.000111111
  0
VERTEX
  8
0
 10
4.59125
 20
1.63683
 30
0.0
 40
0.000111111
 41
0.000111111
  0
VERTEX
  8
0
 10
4.60428
 20
1.64225
 30
0.0
 40
0.000111111
 41
0.000111111
  0
SEQEND
 8
0
  0
POLYLINE
  8
0
 62
     0
 66
     1
 10
0
 20
0
 30
0.0
 70
     1
 40
0.008
 41
0.008
  0
VERTEX
  8
0
 10
5.20372
 20
2.64426
 30
0.0
 40
0.000111111
 41
0.000111111
  0
VERTEX
  8
0
 10
5.20372
 20
1.64774
 30
0.0
 40
0.000111111
 41
0.000111111
  0
VERTEX
  8
0
 10
6.57004
 20
1.64774
 30
0.0
 40
0.000111111
 41
0.000111111
  0
VERTEX
  8
0
 10
6.57004
 20
2.64426
 30
0.0
 40
0.000111111
 41
0.000111111
  0
VERTEX
  8
0
 10
5.20372
 20
2.64426
 30
0.0
 40
0.000111111
 41
0.000111111
  0
SEQEND
 8
0
  0
POLYLINE
  8
0
 62
     0
 66
     1
 10
0
 20
0
 30
0.0
 70
     1
 40
0.008
 41
0.008
  0
VERTEX
  8
0
 10
5.42215
 20
2.48872
 30
0.0
 40
0.000111111
 41
0.000111111
  0
VERTEX
  8
0
 10
5.44808
 20
2.4835
 30
0.0
 40
0.000111111
 41
0.000111111
  0
VERTEX
  8
0
 10
5.46929
 20
2.46924
 30
0.0
 40
0.000111111
 41
0.000111111
  0
VERTEX
  8
0
 10
5.48356
 20
2.44803
 30
0.0
 40
0.000111111
 41
0.000111111
  0
VERTEX
  8
0
 10
5.48882
 20
2.42204
 30
0.0
 40
0.000111111
 41
0.000111111
  0
VERTEX
  8
0
 10
5.48356
 20
2.39606
 30
0.0
 40
0.000111111
 41
0.000111111
  0
VERTEX
  8
0
 10
5.46929
 20
2.37472
 30
0.0
 40
0.000111111
 41
0.000111111
  0
VERTEX
  8
0
 10
5.44808
 20
2.36035
 30
0.0
 40
0.000111111
 41
0.000111111
  0
VERTEX
  8
0
 10
5.42215
 20
2.35503
 30
0.0
 40
0.000111111
 41
0.000111111
  0
VERTEX
  8
0
 10
5.39611
 20
2.36035
 30
0.0
 40
0.000111111
 41
0.000111111
  0
VERTEX
  8
0
 10
5.37478
 20
2.37472
 30
0.0
 40
0.000111111
 41
0.000111111
  0
VERTEX
  8
0
 10
5.3604
 20
2.39606
 30
0.0
 40
0.000111111
 41
0.000111111
  0
VERTEX
  8
0
 10
5.35514
 20
2.42204
 30
0.0
 40
0.000111111
 41
0.000111111
  0
VERTEX
  8
0
 10
5.3604
 20
2.44803
 30
0.0
 40
0.000111111
 41
0.000111111
  0
VERTEX
  8
0
 10
5.37478
 20
2.46924
 30
0.0
 40
0.000111111
 41
0.000111111
  0
VERTEX
  8
0
 10
5.39611
 20
2.4835
 30
0.0
 40
0.000111111
 41
0.000111111
  0
VERTEX
  8
0
 10
5.42215
 20
2.48872
 30
0.0
 40
0.000111111
 41
0.000111111
  0
SEQEND
 8
0
  0
POLYLINE
  8
0
 62
     0
 66
     1
 10
0
 20
0
 30
0.0
 70
     1
 40
0.008
 41
0.008
  0
VERTEX
  8
0
 10
6.33535
 20
2.48872
 30
0.0
 40
0.000111111
 41
0.000111111
  0
VERTEX
  8
0
 10
6.36128
 20
2.4835
 30
0.0
 40
0.000111111
 41
0.000111111
  0
VERTEX
  8
0
 10
6.38249
 20
2.46924
 30
0.0
 40
0.000111111
 41
0.000111111
  0
VERTEX
  8
0
 10
6.39675
 20
2.44803
 30
0.0
 40
0.000111111
 41
0.000111111
  0
VERTEX
  8
0
 10
6.40201
 20
2.42204
 30
0.0
 40
0.000111111
 41
0.000111111
  0
VERTEX
  8
0
 10
6.39675
 20
2.39606
 30
0.0
 40
0.000111111
 41
0.000111111
  0
VERTEX
  8
0
 10
6.38249
 20
2.37472
 30
0.0
 40
0.000111111
 41
0.000111111
  0
VERTEX
  8
0
 10
6.36128
 20
2.36035
 30
0.0
 40
0.000111111
 41
0.000111111
  0
VERTEX
  8
0
 10
6.33535
 20
2.35503
 30
0.0
 40
0.000111111
 41
0.000111111
  0
VERTEX
  8
0
 10
6.30935
 20
2.36035
 30
0.0
 40
0.000111111
 41
0.000111111
  0
VERTEX
  8
0
 10
6.28814
 20
2.37472
 30
0.0
 40
0.000111111
 41
0.000111111
  0
VERTEX
  8
0
 10
6.27387
 20
2.39606
 30
0.0
 40
0.000111111
 41
0.000111111
  0
VERTEX
  8
0
 10
6.26867
 20
2.42204
 30
0.0
 40
0.000111111
 41
0.000111111
  0
VERTEX
  8
0
 10
6.27387
 20
2.44803
 30
0.0
 40
0.000111111
 41
0.000111111
  0
VERTEX
  8
0
 10
6.28814
 20
2.46924
 30
0.0
 40
0.000111111
 41
0.000111111
  0
VERTEX
  8
0
 10
6.30935
 20
2.4835
 30
0.0
 40
0.000111111
 41
0.000111111
  0
VERTEX
  8
0
 10
6.33535
 20
2.48872
 30
0.0
 40
0.000111111
 41
0.000111111
  0
SEQEND
 8
0
  0
POLYLINE
  8
0
 62
     0
 66
     1
 10
0
 20
0
 30
0.0
 70
     1
 40
0.008
 41
0.008
  0
VERTEX
  8
0
 10
5.4235
 20
1.90815
 30
0.0
 40
0.000111111
 41
0.000111111
  0
VERTEX
  8
0
 10
5.44943
 20
1.90294
 30
0.0
 40
0.000111111
 41
0.000111111
  0
VERTEX
  8
0
 10
5.47065
 20
1.88867
 30
0.0
 40
0.000111111
 41
0.000111111
  0
VERTEX
  8
0
 10
5.48492
 20
1.86746
 30
0.0
 40
0.000111111
 41
0.000111111
  0
VERTEX
  8
0
 10
5.49018
 20
1.84153
 30
0.0
 40
0.000111111
 41
0.000111111
  0
VERTEX
  8
0
 10
5.48492
 20
1.8156
 30
0.0
 40
0.000111111
 41
0.000111111
  0
VERTEX
  8
0
 10
5.47065
 20
1.79438
 30
0.0
 40
0.000111111
 41
0.000111111
  0
VERTEX
  8
0
 10
5.44943
 20
1.78011
 30
0.0
 40
0.000111111
 41
0.000111111
  0
VERTEX
  8
0
 10
5.4235
 20
1.77485
 30
0.0
 40
0.000111111
 41
0.000111111
  0
VERTEX
  8
0
 10
5.39746
 20
1.78011
 30
0.0
 40
0.000111111
 41
0.000111111
  0
VERTEX
  8
0
 10
5.37614
 20
1.79438
 30
0.0
 40
0.000111111
 41
0.000111111
  0
VERTEX
  8
0
 10
5.36176
 20
1.8156
 30
0.0
 40
0.000111111
 41
0.000111111
  0
VERTEX
  8
0
 10
5.3565
 20
1.84153
 30
0.0
 40
0.000111111
 41
0.000111111
  0
VERTEX
  8
0
 10
5.36176
 20
1.86746
 30
0.0
 40
0.000111111
 41
0.000111111
  0
VERTEX
  8
0
 10
5.37614
 20
1.88867
 30
0.0
 40
0.000111111
 41
0.000111111
  0
VERTEX
  8
0
 10
5.39746
 20
1.90294
 30
0.0
 40
0.000111111
 41
0.000111111
  0
VERTEX
  8
0
 10
5.4235
 20
1.90815
 30
0.0
 40
0.000111111
 41
0.000111111
  0
SEQEND
 8
0
  0
POLYLINE
  8
0
 62
     0
 66
     1
 10
0
 20
0
 30
0.0
 70
     1
 40
0.008
 41
0.008
  0
VERTEX
  8
0
 10
6.33669
 20
1.90815
 30
0.0
 40
0.000111111
 41
0.000111111
  0
VERTEX
  8
0
 10
6.36263
 20
1.90294
 30
0.0
 40
0.000111111
 41
0.000111111
  0
VERTEX
  8
0
 10
6.38385
 20
1.88867
 30
0.0
 40
0.000111111
 41
0.000111111
  0
VERTEX
  8
0
 10
6.39811
 20
1.86746
 30
0.0
 40
0.000111111
 41
0.000111111
  0
VERTEX
  8
0
 10
6.40338
 20
1.84153
 30
0.0
 40
0.000111111
 41
0.000111111
  0
VERTEX
  8
0
 10
6.39811
 20
1.8156
 30
0.0
 40
0.000111111
 41
0.000111111
  0
VERTEX
  8
0
 10
6.38385
 20
1.79438
 30
0.0
 40
0.000111111
 41
0.000111111
  0
VERTEX
  8
0
 10
6.36263
 20
1.78011
 30
0.0
 40
0.000111111
 41
0.000111111
  0
VERTEX
  8
0
 10
6.33669
 20
1.77485
 30
0.0
 40
0.000111111
 41
0.000111111
  0
VERTEX
  8
0
 10
6.31071
 20
1.78011
 30
0.0
 40
0.000111111
 41
0.000111111
  0
VERTEX
  8
0
 10
6.28956
 20
1.79438
 30
0.0
 40
0.000111111
 41
0.000111111
  0
VERTEX
  8
0
 10
6.27528
 20
1.8156
 30
0.0
 40
0.000111111
 41
0.000111111
  0
VERTEX
  8
0
 10
6.27007
 20
1.84153
 30
0.0
 40
0.000111111
 41
0.000111111
  0
VERTEX
  8
0
 10
6.27528
 20
1.86746
 30
0.0
 40
0.000111111
 41
0.000111111
  0
VERTEX
  8
0
 10
6.28956
 20
1.88867
 30
0.0
 40
0.000111111
 41
0.000111111
  0
VERTEX
  8
0
 10
6.31071
 20
1.90294
 30
0.0
 40
0.000111111
 41
0.000111111
  0
VERTEX
  8
0
 10
6.33669
 20
1.90815
 30
0.0
 40
0.000111111
 41
0.000111111
  0
SEQEND
 8
0
  0
POLYLINE
  8
0
 62
     0
 66
     1
 10
0
 20
0
 30
0.0
 70
     1
 40
0.008
 41
0.008
  0
VERTEX
  8
0
 10
5.23432
 20
3.8546
 30
0.0
 40
0.000111111
 41
0.000111111
  0
VERTEX
  8
0
 10
5.23432
 20
2.85807
 30
0.0
 40
0.000111111
 41
0.000111111
  0
VERTEX
  8
0
 10
6.60064
 20
2.85807
 30
0.0
 40
0.000111111
 41
0.000111111
  0
VERTEX
  8
0
 10
6.60064
 20
3.8546
 30
0.0
 40
0.000111111
 41
0.000111111
  0
VERTEX
  8
0
 10
5.23432
 20
3.8546
 30
0.0
 40
0.000111111
 41
0.000111111
  0
SEQEND
 8
0
  0
POLYLINE
  8
0
 62
     0
 66
     1
 10
0
 20
0
 30
0.0
 70
     1
 40
0.008
 41
0.008
  0
VERTEX
  8
0
 10
5.45275
 20
3.69906
 30
0.0
 40
0.000111111
 41
0.000111111
  0
VERTEX
  8
0
 10
5.47868
 20
3.69385
 30
0.0
 40
0.000111111
 41
0.000111111
  0
VERTEX
  8
0
 10
5.49989
 20
3.67958
 30
0.0
 40
0.000111111
 41
0.000111111
  0
VERTEX
  8
0
 10
5.51417
 20
3.65836
 30
0.0
 40
0.000111111
 41
0.000111111
  0
VERTEX
  8
0
 10
5.51942
 20
3.63238
 30
0.0
 40
0.000111111
 41
0.000111111
  0
VERTEX
  8
0
 10
5.51417
 20
3.60639
 30
0.0
 40
0.000111111
 41
0.000111111
  0
VERTEX
  8
0
 10
5.49989
 20
3.58507
 30
0.0
 40
0.000111111
 41
0.000111111
  0
VERTEX
  8
0
 10
5.47868
 20
3.57069
 30
0.0
 40
0.000111111
 41
0.000111111
  0
VERTEX
  8
0
 10
5.45275
 20
3.56538
 30
0.0
 40
0.000111111
 41
0.000111111
  0
VERTEX
  8
0
 10
5.42671
 20
3.57069
 30
0.0
 40
0.000111111
 41
0.000111111
  0
VERTEX
  8
0
 10
5.40539
 20
3.58507
 30
0.0
 40
0.000111111
 41
0.000111111
  0
VERTEX
  8
0
 10
5.391
 20
3.60639
 30
0.0
 40
0.000111111
 41
0.000111111
  0
VERTEX
  8
0
 10
5.38574
 20
3.63238
 30
0.0
 40
0.000111111
 41
0.000111111
  0
VERTEX
  8
0
 10
5.391
 20
3.65836
 30
0.0
 40
0.000111111
 41
0.000111111
  0
VERTEX
  8
0
 10
5.40539
 20
3.67958
 30
0.0
 40
0.000111111
 41
0.000111111
  0
VERTEX
  8
0
 10
5.42671
 20
3.69385
 30
0.0
 40
0.000111111
 41
0.000111111
  0
VERTEX
  8
0
 10
5.45275
 20
3.69906
 30
0.0
 40
0.000111111
 41
0.000111111
  0
SEQEND
 8
0
  0
POLYLINE
  8
0
 62
     0
 66
     1
 10
0
 20
0
 30
0.0
 70
     1
 40
0.008
 41
0.008
  0
VERTEX
  8
0
 10
6.36594
 20
3.69906
 30
0.0
 40
0.000111111
 41
0.000111111
  0
VERTEX
  8
0
 10
6.39187
 20
3.69385
 30
0.0
 40
0.000111111
 41
0.000111111
  0
VERTEX
  8
0
 10
6.41308
 20
3.67958
 30
0.0
 40
0.000111111
 41
0.000111111
  0
VERTEX
  8
0
 10
6.42736
 20
3.65836
 30
0.0
 40
0.000111111
 41
0.000111111
  0
VERTEX
  8
0
 10
6.43261
 20
3.63238
 30
0.0
 40
0.000111111
 41
0.000111111
  0
VERTEX
  8
0
 10
6.42736
 20
3.60639
 30
0.0
 40
0.000111111
 41
0.000111111
  0
VERTEX
  8
0
 10
6.41308
 20
3.58507
 30
0.0
 40
0.000111111
 41
0.000111111
  0
VERTEX
  8
0
 10
6.39187
 20
3.57069
 30
0.0
 40
0.000111111
 41
0.000111111
  0
VERTEX
  8
0
 10
6.36594
 20
3.56538
 30
0.0
 40
0.000111111
 41
0.000111111
  0
VERTEX
  8
0
 10
6.33996
 20
3.57069
 30
0.0
 40
0.000111111
 41
0.000111111
  0
VERTEX
  8
0
 10
6.31874
 20
3.58507
 30
0.0
 40
0.000111111
 41
0.000111111
  0
VERTEX
  8
0
 10
6.30447
 20
3.60639
 30
0.0
 40
0.000111111
 41
0.000111111
  0
VERTEX
  8
0
 10
6.29926
 20
3.63238
 30
0.0
 40
0.000111111
 41
0.000111111
  0
VERTEX
  8
0
 10
6.30447
 20
3.65836
 30
0.0
 40
0.000111111
 41
0.000111111
  0
VERTEX
  8
0
 10
6.31874
 20
3.67958
 30
0.0
 40
0.000111111
 41
0.000111111
  0
VERTEX
  8
0
 10
6.33996
 20
3.69385
 30
0.0
 40
0.000111111
 41
0.000111111
  0
VERTEX
  8
0
 10
6.36594
 20
3.69906
 30
0.0
 40
0.000111111
 41
0.000111111
  0
SEQEND
 8
0
  0
POLYLINE
  8
0
 62
     0
 66
     1
 10
0
 20
0
 30
0.0
 70
     1
 40
0.008
 41
0.008
  0
VERTEX
  8
0
 10
5.45415
 20
3.11849
 30
0.0
 40
0.000111111
 41
0.000111111
  0
VERTEX
  8
0
 10
5.48008
 20
3.11328
 30
0.0
 40
0.000111111
 41
0.000111111
  0
VERTEX
  8
0
 10
5.50125
 20
3.09901
 30
0.0
 40
0.000111111
 41
0.000111111
  0
VERTEX
  8
0
 10
5.51551
 20
3.07781
 30
0.0
 40
0.000111111
 41
0.000111111
  0
VERTEX
  8
0
 10
5.52078
 20
3.05181
 30
0.0
 40
0.000111111
 41
0.000111111
  0
VERTEX
  8
0
 10
5.51551
 20
3.02588
 30
0.0
 40
0.000111111
 41
0.000111111
  0
VERTEX
  8
0
 10
5.50125
 20
3.00467
 30
0.0
 40
0.000111111
 41
0.000111111
  0
VERTEX
  8
0
 10
5.48008
 20
2.9904
 30
0.0
 40
0.000111111
 41
0.000111111
  0
VERTEX
  8
0
 10
5.45415
 20
2.98514
 30
0.0
 40
0.000111111
 41
0.000111111
  0
VERTEX
  8
0
 10
5.42811
 20
2.9904
 30
0.0
 40
0.000111111
 41
0.000111111
  0
VERTEX
  8
0
 10
5.40679
 20
3.00467
 30
0.0
 40
0.000111111
 41
0.000111111
  0
VERTEX
  8
0
 10
5.39236
 20
3.02588
 30
0.0
 40
0.000111111
 41
0.000111111
  0
VERTEX
  8
0
 10
5.3871
 20
3.05181
 30
0.0
 40
0.000111111
 41
0.000111111
  0
VERTEX
  8
0
 10
5.39236
 20
3.07781
 30
0.0
 40
0.000111111
 41
0.000111111
  0
VERTEX
  8
0
 10
5.40679
 20
3.09901
 30
0.0
 40
0.000111111
 41
0.000111111
  0
VERTEX
  8
0
 10
5.42811
 20
3.11328
 30
0.0
 40
0.000111111
 41
0.000111111
  0
VERTEX
  8
0
 10
5.45415
 20
3.11849
 30
0.0
 40
0.000111111
 41
0.000111111
  0
SEQEND
 8
0
  0
POLYLINE
  8
0
 62
     0
 66
     1
 10
0
 20
0
 30
0.0
 70
     1
 40
0.008
 41
0.008
  0
VERTEX
  8
0
 10
6.36735
 20
3.11849
 30
0.0
 40
0.000111111
 41
0.000111111
  0
VERTEX
  8
0
 10
6.39328
 20
3.11328
 30
0.0
 40
0.000111111
 41
0.000111111
  0
VERTEX
  8
0
 10
6.41444
 20
3.09901
 30
0.0
 40
0.000111111
 41
0.000111111
  0
VERTEX
  8
0
 10
6.42871
 20
3.07781
 30
0.0
 40
0.000111111
 41
0.000111111
  0
VERTEX
  8
0
 10
6.43397
 20
3.05181
 30
0.0
 40
0.000111111
 41
0.000111111
  0
VERTEX
  8
0
 10
6.42871
 20
3.02588
 30
0.0
 40
0.000111111
 41
0.000111111
  0
VERTEX
  8
0
 10
6.41444
 20
3.00467
 30
0.0
 40
0.000111111
 41
0.000111111
  0
VERTEX
  8
0
 10
6.39328
 20
2.9904
 30
0.0
 40
0.000111111
 41
0.000111111
  0
VERTEX
  8
0
 10
6.36735
 20
2.98514
 30
0.0
 40
0.000111111
 41
0.000111111
  0
VERTEX
  8
0
 10
6.34136
 20
2.9904
 30
0.0
 40
0.000111111
 41
0.000111111
  0
VERTEX
  8
0
 10
6.32015
 20
3.00467
 30
0.0
 40
0.000111111
 41
0.000111111
  0
VERTEX
  8
0
 10
6.30588
 20
3.02588
 30
0.0
 40
0.000111111
 41
0.000111111
  0
VERTEX
  8
0
 10
6.30067
 20
3.05181
 30
0.0
 40
0.000111111
 41
0.000111111
  0
VERTEX
  8
0
 10
6.30588
 20
3.07781
 30
0.0
 40
0.000111111
 41
0.000111111
  0
VERTEX
  8
0
 10
6.32015
 20
3.09901
 30
0.0
 40
0.000111111
 41
0.000111111
  0
VERTEX
  8
0
 10
6.34136
 20
3.11328
 30
0.0
 40
0.000111111
 41
0.000111111
  0
VERTEX
  8
0
 10
6.36735
 20
3.11849
 30
0.0
 40
0.000111111
 41
0.000111111
  0
SEQEND
 8
0
  0
POLYLINE
  8
0
 62
     0
 66
     1
 10
0
 20
0
 30
0.0
 70
     1
 40
0.008
 41
0.008
  0
VERTEX
  8
0
 10
5.11404
 20
1.25743
 30
0.0
 40
0.000111111
 41
0.000111111
  0
VERTEX
  8
0
 10
5.11404
 20
0.717503
 30
0.0
 40
0.000111111
 41
0.000111111
  0
VERTEX
  8
0
 10
3.84983
 20
0.717503
 30
0.0
 40
0.000111111
 41
0.000111111
  0
VERTEX
  8
0
 10
3.84983
 20
0.245606
 30
0.0
 40
0.000111111
 41
0.000111111
  0
VERTEX
  8
0
 10
7.37028
 20
0.245606
 30
0.0
 40
0.000111111
 41
0.000111111
  0
VERTEX
  8
0
 10
7.37028
 20
0.717503
 30
0.0
 40
0.000111111
 41
0.000111111
  0
VERTEX
  8
0
 10
6.11404
 20
0.717503
 30
0.0
 40
0.000111111
 41
0.000111111
  0
VERTEX
  8
0
 10
6.11404
 20
1.25743
 30
0.0
 40
0.000111111
 41
0.000111111
  0
VERTEX
  8
0
 10
5.11404
 20
1.25743
 30
0.0
 40
0.000111111
 41
0.000111111
  0
SEQEND
 8
0
  0
POLYLINE
  8
0
 62
     0
 66
     1
 10
0
 20
0
 30
0.0
 70
     1
 40
0.008
 41
0.008
  0
VERTEX
  8
0
 10
4.06819
 20
0.561903
 30
0.0
 40
0.000111111
 41
0.000111111
  0
VERTEX
  8
0
 10
4.09413
 20
0.556694
 30
0.0
 40
0.000111111
 41
0.000111111
  0
VERTEX
  8
0
 10
4.11535
 20
0.542426
 30
0.0
 40
0.000111111
 41
0.000111111
  0
VERTEX
  8
0
 10
4.12961
 20
0.521267
 30
0.0
 40
0.000111111
 41
0.000111111
  0
VERTEX
  8
0
 10
4.13488
 20
0.495281
 30
0.0
 40
0.000111111
 41
0.000111111
  0
VERTEX
  8
0
 10
4.12961
 20
0.469293
 30
0.0
 40
0.000111111
 41
0.000111111
  0
VERTEX
  8
0
 10
4.11535
 20
0.447971
 30
0.0
 40
0.000111111
 41
0.000111111
  0
VERTEX
  8
0
 10
4.09413
 20
0.433539
 30
0.0
 40
0.000111111
 41
0.000111111
  0
VERTEX
  8
0
 10
4.06819
 20
0.428222
 30
0.0
 40
0.000111111
 41
0.000111111
  0
VERTEX
  8
0
 10
4.04215
 20
0.433539
 30
0.0
 40
0.000111111
 41
0.000111111
  0
VERTEX
  8
0
 10
4.02083
 20
0.447971
 30
0.0
 40
0.000111111
 41
0.000111111
  0
VERTEX
  8
0
 10
4.00646
 20
0.469293
 30
0.0
 40
0.000111111
 41
0.000111111
  0
VERTEX
  8
0
 10
4.00119
 20
0.495281
 30
0.0
 40
0.000111111
 41
0.000111111
  0
VERTEX
  8
0
 10
4.00646
 20
0.521267
 30
0.0
 40
0.000111111
 41
0.000111111
  0
VERTEX
  8
0
 10
4.02083
 20
0.542426
 30
0.0
 40
0.000111111
 41
0.000111111
  0
VERTEX
  8
0
 10
4.04215
 20
0.556694
 30
0.0
 40
0.000111111
 41
0.000111111
  0
VERTEX
  8
0
 10
4.06819
 20
0.561903
 30
0.0
 40
0.000111111
 41
0.000111111
  0
SEQEND
 8
0
  0
POLYLINE
  8
0
 62
     0
 66
     1
 10
0
 20
0
 30
0.0
 70
     1
 40
0.008
 41
0.008
  0
VERTEX
  8
0
 10
4.98139
 20
0.561903
 30
0.0
 40
0.000111111
 41
0.000111111
  0
VERTEX
  8
0
 10
5.00732
 20
0.556694
 30
0.0
 40
0.000111111
 41
0.000111111
  0
VERTEX
  8
0
 10
5.02854
 20
0.542426
 30
0.0
 40
0.000111111
 41
0.000111111
  0
VERTEX
  8
0
 10
5.04281
 20
0.521267
 30
0.0
 40
0.000111111
 41
0.000111111
  0
VERTEX
  8
0
 10
5.04807
 20
0.495281
 30
0.0
 40
0.000111111
 41
0.000111111
  0
VERTEX
  8
0
 10
5.04281
 20
0.469293
 30
0.0
 40
0.000111111
 41
0.000111111
  0
VERTEX
  8
0
 10
5.02854
 20
0.447971
 30
0.0
 40
0.000111111
 41
0.000111111
  0
VERTEX
  8
0
 10
5.00732
 20
0.433539
 30
0.0
 40
0.000111111
 41
0.000111111
  0
VERTEX
  8
0
 10
4.98139
 20
0.428222
 30
0.0
 40
0.000111111
 41
0.000111111
  0
VERTEX
  8
0
 10
4.9554
 20
0.433539
 30
0.0
 40
0.000111111
 41
0.000111111
  0
VERTEX
  8
0
 10
4.93419
 20
0.447971
 30
0.0
 40
0.000111111
 41
0.000111111
  0
VERTEX
  8
0
 10
4.91992
 20
0.469293
 30
0.0
 40
0.000111111
 41
0.000111111
  0
VERTEX
  8
0
 10
4.91471
 20
0.495281
 30
0.0
 40
0.000111111
 41
0.000111111
  0
VERTEX
  8
0
 10
4.91992
 20
0.521267
 30
0.0
 40
0.000111111
 41
0.000111111
  0
VERTEX
  8
0
 10
4.93419
 20
0.542426
 30
0.0
 40
0.000111111
 41
0.000111111
  0
VERTEX
  8
0
 10
4.9554
 20
0.556694
 30
0.0
 40
0.000111111
 41
0.000111111
  0
VERTEX
  8
0
 10
4.98139
 20
0.561903
 30
0.0
 40
0.000111111
 41
0.000111111
  0
SEQEND
 8
0
  0
POLYLINE
  8
0
 62
     0
 66
     1
 10
0
 20
0
 30
0.0
 70
     1
 40
0.008
 41
0.008
  0
VERTEX
  8
0
 10
6.22239
 20
0.561903
 30
0.0
 40
0.000111111
 41
0.000111111
  0
VERTEX
  8
0
 10
6.24832
 20
0.556694
 30
0.0
 40
0.000111111
 41
0.000111111
  0
VERTEX
  8
0
 10
6.26953
 20
0.542426
 30
0.0
 40
0.000111111
 41
0.000111111
  0
VERTEX
  8
0
 10
6.28381
 20
0.521267
 30
0.0
 40
0.000111111
 41
0.000111111
  0
VERTEX
  8
0
 10
6.28906
 20
0.495281
 30
0.0
 40
0.000111111
 41
0.000111111
  0
VERTEX
  8
0
 10
6.28381
 20
0.469293
 30
0.0
 40
0.000111111
 41
0.000111111
  0
VERTEX
  8
0
 10
6.26953
 20
0.447971
 30
0.0
 40
0.000111111
 41
0.000111111
  0
VERTEX
  8
0
 10
6.24832
 20
0.433539
 30
0.0
 40
0.000111111
 41
0.000111111
  0
VERTEX
  8
0
 10
6.22239
 20
0.428222
 30
0.0
 40
0.000111111
 41
0.000111111
  0
VERTEX
  8
0
 10
6.19635
 20
0.433539
 30
0.0
 40
0.000111111
 41
0.000111111
  0
VERTEX
  8
0
 10
6.17503
 20
0.447971
 30
0.0
 40
0.000111111
 41
0.000111111
  0
VERTEX
  8
0
 10
6.16064
 20
0.469293
 30
0.0
 40
0.000111111
 41
0.000111111
  0
VERTEX
  8
0
 10
6.15539
 20
0.495281
 30
0.0
 40
0.000111111
 41
0.000111111
  0
VERTEX
  8
0
 10
6.16064
 20
0.521267
 30
0.0
 40
0.000111111
 41
0.000111111
  0
VERTEX
  8
0
 10
6.17503
 20
0.542426
 30
0.0
 40
0.000111111
 41
0.000111111
  0
VERTEX
  8
0
 10
6.19635
 20
0.556694
 30
0.0
 40
0.000111111
 41
0.000111111
  0
VERTEX
  8
0
 10
6.22239
 20
0.561903
 30
0.0
 40
0.000111111
 41
0.000111111
  0
SEQEND
 8
0
  0
POLYLINE
  8
0
 62
     0
 66
     1
 10
0
 20
0
 30
0.0
 70
     1
 40
0.008
 41
0.008
  0
VERTEX
  8
0
 10
7.13558
 20
0.561903
 30
0.0
 40
0.000111111
 41
0.000111111
  0
VERTEX
  8
0
 10
7.16151
 20
0.556694
 30
0.0
 40
0.000111111
 41
0.000111111
  0
VERTEX
  8
0
 10
7.18272
 20
0.542426
 30
0.0
 40
0.000111111
 41
0.000111111
  0
VERTEX
  8
0
 10
7.197
 20
0.521267
 30
0.0
 40
0.000111111
 41
0.000111111
  0
VERTEX
  8
0
 10
7.20225
 20
0.495281
 30
0.0
 40
0.000111111
 41
0.000111111
  0
VERTEX
  8
0
 10
7.197
 20
0.469293
 30
0.0
 40
0.000111111
 41
0.000111111
  0
VERTEX
  8
0
 10
7.18272
 20
0.447971
 30
0.0
 40
0.000111111
 41
0.000111111
  0
VERTEX
  8
0
 10
7.16151
 20
0.433539
 30
0.0
 40
0.000111111
 41
0.000111111
  0
VERTEX
  8
0
 10
7.13558
 20
0.428222
 30
0.0
 40
0.000111111
 41
0.000111111
  0
VERTEX
  8
0
 10
7.1096
 20
0.433539
 30
0.0
 40
0.000111111
 41
0.000111111
  0
VERTEX
  8
0
 10
7.08838
 20
0.447971
 30
0.0
 40
0.000111111
 41
0.000111111
  0
VERTEX
  8
0
 10
7.07411
 20
0.469293
 30
0.0
 40
0.000111111
 41
0.000111111
  0
VERTEX
  8
0
 10
7.0689
 20
0.495281
 30
0.0
 40
0.000111111
 41
0.000111111
  0
VERTEX
  8
0
 10
7.07411
 20
0.521267
 30
0.0
 40
0.000111111
 41
0.000111111
  0
VERTEX
  8
0
 10
7.08838
 20
0.542426
 30
0.0
 40
0.000111111
 41
0.000111111
  0
VERTEX
  8
0
 10
7.1096
 20
0.556694
 30
0.0
 40
0.000111111
 41
0.000111111
  0
VERTEX
  8
0
 10
7.13558
 20
0.561903
 30
0.0
 40
0.000111111
 41
0.000111111
  0
SEQEND
 8
0
  0
POLYLINE
  8
0
 62
     0
 66
     1
 10
0
 20
0
 30
0.0
 70
     1
 40
0.008
 41
0.008
  0
VERTEX
  8
0
 10
1.26481
 20
1.53683
 30
0.0
 40
0.000111111
 41
0.000111111
  0
VERTEX
  8
0
 10
1.26481
 20
0.996907
 30
0.0
 40
0.000111111
 41
0.000111111
  0
VERTEX
  8
0
 10
0.000542535
 20
0.996907
 30
0.0
 40
0.000111111
 41
0.000111111
  0
VERTEX
  8
0
 10
0.000542535
 20
0.000379775
 30
0.0
 40
0.000111111
 41
0.000111111
  0
VERTEX
  8
0
 10
1.36686
 20
0.000379775
 30
0.0
 40
0.000111111
 41
0.000111111
  0
VERTEX
  8
0
 10
1.36686
 20
0.0024414
 30
0.0
 40
0.000111111
 41
0.000111111
  0
VERTEX
  8
0
 10
2.15474
 20
0.0024414
 30
0.0
 40
0.000111111
 41
0.000111111
  0
VERTEX
  8
0
 10
2.15474
 20
0.000379775
 30
0.0
 40
0.000111111
 41
0.000111111
  0
VERTEX
  8
0
 10
3.52106
 20
0.000379775
 30
0.0
 40
0.000111111
 41
0.000111111
  0
VERTEX
  8
0
 10
3.52106
 20
0.996907
 30
0.0
 40
0.000111111
 41
0.000111111
  0
VERTEX
  8
0
 10
2.26481
 20
0.996907
 30
0.0
 40
0.000111111
 41
0.000111111
  0
VERTEX
  8
0
 10
2.26481
 20
1.53683
 30
0.0
 40
0.000111111
 41
0.000111111
  0
VERTEX
  8
0
 10
1.26481
 20
1.53683
 30
0.0
 40
0.000111111
 41
0.000111111
  0
SEQEND
 8
0
  0
POLYLINE
  8
0
 62
     0
 66
     1
 10
0
 20
0
 30
0.0
 70
     1
 40
0.008
 41
0.008
  0
VERTEX
  8
0
 10
0.218967
 20
0.841362
 30
0.0
 40
0.000111111
 41
0.000111111
  0
VERTEX
  8
0
 10
0.2449
 20
0.836154
 30
0.0
 40
0.000111111
 41
0.000111111
  0
VERTEX
  8
0
 10
0.266114
 20
0.821886
 30
0.0
 40
0.000111111
 41
0.000111111
  0
VERTEX
  8
0
 10
0.280382
 20
0.800672
 30
0.0
 40
0.000111111
 41
0.000111111
  0
VERTEX
  8
0
 10
0.285644
 20
0.774685
 30
0.0
 40
0.000111111
 41
0.000111111
  0
VERTEX
  8
0
 10
0.280382
 20
0.748697
 30
0.0
 40
0.000111111
 41
0.000111111
  0
VERTEX
  8
0
 10
0.266114
 20
0.727431
 30
0.0
 40
0.000111111
 41
0.000111111
  0
VERTEX
  8
0
 10
0.2449
 20
0.712999
 30
0.0
 40
0.000111111
 41
0.000111111
  0
VERTEX
  8
0
 10
0.218967
 20
0.707682
 30
0.0
 40
0.000111111
 41
0.000111111
  0
VERTEX
  8
0
 10
0.192925
 20
0.712999
 30
0.0
 40
0.000111111
 41
0.000111111
  0
VERTEX
  8
0
 10
0.171604
 20
0.727431
 30
0.0
 40
0.000111111
 41
0.000111111
  0
VERTEX
  8
0
 10
0.157226
 20
0.748697
 30
0.0
 40
0.000111111
 41
0.000111111
  0
VERTEX
  8
0
 10
0.151964
 20
0.774685
 30
0.0
 40
0.000111111
 41
0.000111111
  0
VERTEX
  8
0
 10
0.157226
 20
0.800672
 30
0.0
 40
0.000111111
 41
0.000111111
  0
VERTEX
  8
0
 10
0.171604
 20
0.821886
 30
0.0
 40
0.000111111
 41
0.000111111
  0
VERTEX
  8
0
 10
0.192925
 20
0.836154
 30
0.0
 40
0.000111111
 41
0.000111111
  0
VERTEX
  8
0
 10
0.218967
 20
0.841362
 30
0.0
 40
0.000111111
 41
0.000111111
  0
SEQEND
 8
0
  0
POLYLINE
  8
0
 62
     0
 66
     1
 10
0
 20
0
 30
0.0
 70
     1
 40
0.008
 41
0.008
  0
VERTEX
  8
0
 10
1.13216
 20
0.841362
 30
0.0
 40
0.000111111
 41
0.000111111
  0
VERTEX
  8
0
 10
1.15809
 20
0.836154
 30
0.0
 40
0.000111111
 41
0.000111111
  0
VERTEX
  8
0
 10
1.17931
 20
0.821886
 30
0.0
 40
0.000111111
 41
0.000111111
  0
VERTEX
  8
0
 10
1.19358
 20
0.800672
 30
0.0
 40
0.000111111
 41
0.000111111
  0
VERTEX
  8
0
 10
1.19884
 20
0.774685
 30
0.0
 40
0.000111111
 41
0.000111111
  0
VERTEX
  8
0
 10
1.19358
 20
0.748697
 30
0.0
 40
0.000111111
 41
0.000111111
  0
VERTEX
  8
0
 10
1.17931
 20
0.727431
 30
0.0
 40
0.000111111
 41
0.000111111
  0
VERTEX
  8
0
 10
1.15809
 20
0.712999
 30
0.0
 40
0.000111111
 41
0.000111111
  0
VERTEX
  8
0
 10
1.13216
 20
0.707682
 30
0.0
 40
0.000111111
 41
0.000111111
  0
VERTEX
  8
0
 10
1.10617
 20
0.712999
 30
0.0
 40
0.000111111
 41
0.000111111
  0
VERTEX
  8
0
 10
1.08496
 20
0.727431
 30
0.0
 40
0.000111111
 41
0.000111111
  0
VERTEX
  8
0
 10
1.07069
 20
0.748697
 30
0.0
 40
0.000111111
 41
0.000111111
  0
VERTEX
  8
0
 10
1.06548
 20
0.774685
 30
0.0
 40
0.000111111
 41
0.000111111
  0
VERTEX
  8
0
 10
1.07069
 20
0.800672
 30
0.0
 40
0.000111111
 41
0.000111111
  0
VERTEX
  8
0
 10
1.08496
 20
0.821886
 30
0.0
 40
0.000111111
 41
0.000111111
  0
VERTEX
  8
0
 10
1.10617
 20
0.836154
 30
0.0
 40
0.000111111
 41
0.000111111
  0
VERTEX
  8
0
 10
1.13216
 20
0.841362
 30
0.0
 40
0.000111111
 41
0.000111111
  0
SEQEND
 8
0
  0
POLYLINE
  8
0
 62
     0
 66
     1
 10
0
 20
0
 30
0.0
 70
     1
 40
0.008
 41
0.008
  0
VERTEX
  8
0
 10
2.37315
 20
0.841362
 30
0.0
 40
0.000111111
 41
0.000111111
  0
VERTEX
  8
0
 10
2.39908
 20
0.836154
 30
0.0
 40
0.000111111
 41
0.000111111
  0
VERTEX
  8
0
 10
2.42025
 20
0.821886
 30
0.0
 40
0.000111111
 41
0.000111111
  0
VERTEX
  8
0
 10
2.43451
 20
0.800672
 30
0.0
 40
0.000111111
 41
0.000111111
  0
VERTEX
  8
0
 10
2.43978
 20
0.774685
 30
0.0
 40
0.000111111
 41
0.000111111
  0
VERTEX
  8
0
 10
2.43451
 20
0.748697
 30
0.0
 40
0.000111111
 41
0.000111111
  0
VERTEX
  8
0
 10
2.42025
 20
0.727431
 30
0.0
 40
0.000111111
 41
0.000111111
  0
VERTEX
  8
0
 10
2.39908
 20
0.712999
 30
0.0
 40
0.000111111
 41
0.000111111
  0
VERTEX
  8
0
 10
2.37315
 20
0.707682
 30
0.0
 40
0.000111111
 41
0.000111111
  0
VERTEX
  8
0
 10
2.34711
 20
0.712999
 30
0.0
 40
0.000111111
 41
0.000111111
  0
VERTEX
  8
0
 10
2.32579
 20
0.727431
 30
0.0
 40
0.000111111
 41
0.000111111
  0
VERTEX
  8
0
 10
2.31136
 20
0.748697
 30
0.0
 40
0.000111111
 41
0.000111111
  0
VERTEX
  8
0
 10
2.3061
 20
0.774685
 30
0.0
 40
0.000111111
 41
0.000111111
  0
VERTEX
  8
0
 10
2.31136
 20
0.800672
 30
0.0
 40
0.000111111
 41
0.000111111
  0
VERTEX
  8
0
 10
2.32579
 20
0.821886
 30
0.0
 40
0.000111111
 41
0.000111111
  0
VERTEX
  8
0
 10
2.34711
 20
0.836154
 30
0.0
 40
0.000111111
 41
0.000111111
  0
VERTEX
  8
0
 10
2.37315
 20
0.841362
 30
0.0
 40
0.000111111
 41
0.000111111
  0
SEQEND
 8
0
  0
POLYLINE
  8
0
 62
     0
 66
     1
 10
0
 20
0
 30
0.0
 70
     1
 40
0.008
 41
0.008
  0
VERTEX
  8
0
 10
3.28635
 20
0.841362
 30
0.0
 40
0.000111111
 41
0.000111111
  0
VERTEX
  8
0
 10
3.31228
 20
0.836154
 30
0.0
 40
0.000111111
 41
0.000111111
  0
VERTEX
  8
0
 10
3.33344
 20
0.821886
 30
0.0
 40
0.000111111
 41
0.000111111
  0
VERTEX
  8
0
 10
3.34771
 20
0.800672
 30
0.0
 40
0.000111111
 41
0.000111111
  0
VERTEX
  8
0
 10
3.35297
 20
0.774685
 30
0.0
 40
0.000111111
 41
0.000111111
  0
VERTEX
  8
0
 10
3.34771
 20
0.748697
 30
0.0
 40
0.000111111
 41
0.000111111
  0
VERTEX
  8
0
 10
3.33344
 20
0.727431
 30
0.0
 40
0.000111111
 41
0.000111111
  0
VERTEX
  8
0
 10
3.31228
 20
0.712999
 30
0.0
 40
0.000111111
 41
0.000111111
  0
VERTEX
  8
0
 10
3.28635
 20
0.707682
 30
0.0
 40
0.000111111
 41
0.000111111
  0
VERTEX
  8
0
 10
3.26036
 20
0.712999
 30
0.0
 40
0.000111111
 41
0.000111111
  0
VERTEX
  8
0
 10
3.23915
 20
0.727431
 30
0.0
 40
0.000111111
 41
0.000111111
  0
VERTEX
  8
0
 10
3.22487
 20
0.748697
 30
0.0
 40
0.000111111
 41
0.000111111
  0
VERTEX
  8
0
 10
3.21967
 20
0.774685
 30
0.0
 40
0.000111111
 41
0.000111111
  0
VERTEX
  8
0
 10
3.22487
 20
0.800672
 30
0.0
 40
0.000111111
 41
0.000111111
  0
VERTEX
  8
0
 10
3.23915
 20
0.821886
 30
0.0
 40
0.000111111
 41
0.000111111
  0
VERTEX
  8
0
 10
3.26036
 20
0.836154
 30
0.0
 40
0.000111111
 41
0.000111111
  0
VERTEX
  8
0
 10
3.28635
 20
0.841362
 30
0.0
 40
0.000111111
 41
0.000111111
  0
SEQEND
 8
0
  0
POLYLINE
  8
0
 62
     0
 66
     1
 10
0
 20
0
 30
0.0
 70
     1
 40
0.008
 41
0.008
  0
VERTEX
  8
0
 10
0.220378
 20
0.260796
 30
0.0
 40
0.000111111
 41
0.000111111
  0
VERTEX
  8
0
 10
0.246311
 20
0.255588
 30
0.0
 40
0.000111111
 41
0.000111111
  0
VERTEX
  8
0
 10
0.267469
 20
0.241319
 30
0.0
 40
0.000111111
 41
0.000111111
  0
VERTEX
  8
0
 10
0.281739
 20
0.220107
 30
0.0
 40
0.000111111
 41
0.000111111
  0
VERTEX
  8
0
 10
0.287001
 20
0.194119
 30
0.0
 40
0.000111111
 41
0.000111111
  0
VERTEX
  8
0
 10
0.281739
 20
0.168186
 30
0.0
 40
0.000111111
 41
0.000111111
  0
VERTEX
  8
0
 10
0.267469
 20
0.146972
 30
0.0
 40
0.000111111
 41
0.000111111
  0
VERTEX
  8
0
 10
0.246311
 20
0.132704
 30
0.0
 40
0.000111111
 41
0.000111111
  0
VERTEX
  8
0
 10
0.220378
 20
0.127441
 30
0.0
 40
0.000111111
 41
0.000111111
  0
VERTEX
  8
0
 10
0.194336
 20
0.132704
 30
0.0
 40
0.000111111
 41
0.000111111
  0
VERTEX
  8
0
 10
0.173014
 20
0.146972
 30
0.0
 40
0.000111111
 41
0.000111111
  0
VERTEX
  8
0
 10
0.158583
 20
0.168186
 30
0.0
 40
0.000111111
 41
0.000111111
  0
VERTEX
  8
0
 10
0.153321
 20
0.194119
 30
0.0
 40
0.000111111
 41
0.000111111
  0
VERTEX
  8
0
 10
0.158583
 20
0.220107
 30
0.0
 40
0.000111111
 41
0.000111111
  0
VERTEX
  8
0
 10
0.173014
 20
0.241319
 30
0.0
 40
0.000111111
 41
0.000111111
  0
VERTEX
  8
0
 10
0.194336
 20
0.255588
 30
0.0
 40
0.000111111
 41
0.000111111
  0
VERTEX
  8
0
 10
0.220378
 20
0.260796
 30
0.0
 40
0.000111111
 41
0.000111111
  0
SEQEND
 8
0
  0
POLYLINE
  8
0
 62
     0
 66
     1
 10
0
 20
0
 30
0.0
 70
     1
 40
0.008
 41
0.008
  0
VERTEX
  8
0
 10
1.13357
 20
0.260796
 30
0.0
 40
0.000111111
 41
0.000111111
  0
VERTEX
  8
0
 10
1.15951
 20
0.255588
 30
0.0
 40
0.000111111
 41
0.000111111
  0
VERTEX
  8
0
 10
1.18066
 20
0.241319
 30
0.0
 40
0.000111111
 41
0.000111111
  0
VERTEX
  8
0
 10
1.19493
 20
0.220107
 30
0.0
 40
0.000111111
 41
0.000111111
  0
VERTEX
  8
0
 10
1.2002
 20
0.194119
 30
0.0
 40
0.000111111
 41
0.000111111
  0
VERTEX
  8
0
 10
1.19493
 20
0.168186
 30
0.0
 40
0.000111111
 41
0.000111111
  0
VERTEX
  8
0
 10
1.18066
 20
0.146972
 30
0.0
 40
0.000111111
 41
0.000111111
  0
VERTEX
  8
0
 10
1.15951
 20
0.132704
 30
0.0
 40
0.000111111
 41
0.000111111
  0
VERTEX
  8
0
 10
1.13357
 20
0.127441
 30
0.0
 40
0.000111111
 41
0.000111111
  0
VERTEX
  8
0
 10
1.10758
 20
0.132704
 30
0.0
 40
0.000111111
 41
0.000111111
  0
VERTEX
  8
0
 10
1.08637
 20
0.146972
 30
0.0
 40
0.000111111
 41
0.000111111
  0
VERTEX
  8
0
 10
1.0721
 20
0.168186
 30
0.0
 40
0.000111111
 41
0.000111111
  0
VERTEX
  8
0
 10
1.06689
 20
0.194119
 30
0.0
 40
0.000111111
 41
0.000111111
  0
VERTEX
  8
0
 10
1.0721
 20
0.220107
 30
0.0
 40
0.000111111
 41
0.000111111
  0
VERTEX
  8
0
 10
1.08637
 20
0.241319
 30
0.0
 40
0.000111111
 41
0.000111111
  0
VERTEX
  8
0
 10
1.10758
 20
0.255588
 30
0.0
 40
0.000111111
 41
0.000111111
  0
VERTEX
  8
0
 10
1.13357
 20
0.260796
 30
0.0
 40
0.000111111
 41
0.000111111
  0
SEQEND
 8
0
  0
POLYLINE
  8
0
 62
     0
 66
     1
 10
0
 20
0
 30
0.0
 70
     1
 40
0.008
 41
0.008
  0
VERTEX
  8
0
 10
2.37451
 20
0.260796
 30
0.0
 40
0.000111111
 41
0.000111111
  0
VERTEX
  8
0
 10
2.40044
 20
0.255588
 30
0.0
 40
0.000111111
 41
0.000111111
  0
VERTEX
  8
0
 10
2.42165
 20
0.241319
 30
0.0
 40
0.000111111
 41
0.000111111
  0
VERTEX
  8
0
 10
2.43593
 20
0.220107
 30
0.0
 40
0.000111111
 41
0.000111111
  0
VERTEX
  8
0
 10
2.44119
 20
0.194119
 30
0.0
 40
0.000111111
 41
0.000111111
  0
VERTEX
  8
0
 10
2.43593
 20
0.168186
 30
0.0
 40
0.000111111
 41
0.000111111
  0
VERTEX
  8
0
 10
2.42165
 20
0.146972
 30
0.0
 40
0.000111111
 41
0.000111111
  0
VERTEX
  8
0
 10
2.40044
 20
0.132704
 30
0.0
 40
0.000111111
 41
0.000111111
  0
VERTEX
  8
0
 10
2.37451
 20
0.127441
 30
0.0
 40
0.000111111
 41
0.000111111
  0
VERTEX
  8
0
 10
2.34847
 20
0.132704
 30
0.0
 40
0.000111111
 41
0.000111111
  0
VERTEX
  8
0
 10
2.32715
 20
0.146972
 30
0.0
 40
0.000111111
 41
0.000111111
  0
VERTEX
  8
0
 10
2.31278
 20
0.168186
 30
0.0
 40
0.000111111
 41
0.000111111
  0
VERTEX
  8
0
 10
2.30751
 20
0.194119
 30
0.0
 40
0.000111111
 41
0.000111111
  0
VERTEX
  8
0
 10
2.31278
 20
0.220107
 30
0.0
 40
0.000111111
 41
0.000111111
  0
VERTEX
  8
0
 10
2.32715
 20
0.241319
 30
0.0
 40
0.000111111
 41
0.000111111
  0
VERTEX
  8
0
 10
2.34847
 20
0.255588
 30
0.0
 40
0.000111111
 41
0.000111111
  0
VERTEX
  8
0
 10
2.37451
 20
0.260796
 30
0.0
 40
0.000111111
 41
0.000111111
  0
SEQEND
 8
0
  0
POLYLINE
  8
0
 62
     0
 66
     1
 10
0
 20
0
 30
0.0
 70
     1
 40
0.008
 41
0.008
  0
VERTEX
  8
0
 10
3.28771
 20
0.260796
 30
0.0
 40
0.000111111
 41
0.000111111
  0
VERTEX
  8
0
 10
3.31364
 20
0.255588
 30
0.0
 40
0.000111111
 41
0.000111111
  0
VERTEX
  8
0
 10
3.33485
 20
0.241319
 30
0.0
 40
0.000111111
 41
0.000111111
  0
VERTEX
  8
0
 10
3.34912
 20
0.220107
 30
0.0
 40
0.000111111
 41
0.000111111
  0
VERTEX
  8
0
 10
3.35439
 20
0.194119
 30
0.0
 40
0.000111111
 41
0.000111111
  0
VERTEX
  8
0
 10
3.34912
 20
0.168186
 30
0.0
 40
0.000111111
 41
0.000111111
  0
VERTEX
  8
0
 10
3.33485
 20
0.146972
 30
0.0
 40
0.000111111
 41
0.000111111
  0
VERTEX
  8
0
 10
3.31364
 20
0.132704
 30
0.0
 40
0.000111111
 41
0.000111111
  0
VERTEX
  8
0
 10
3.28771
 20
0.127441
 30
0.0
 40
0.000111111
 41
0.000111111
  0
VERTEX
  8
0
 10
3.26172
 20
0.132704
 30
0.0
 40
0.000111111
 41
0.000111111
  0
VERTEX
  8
0
 10
3.2405
 20
0.146972
 30
0.0
 40
0.000111111
 41
0.000111111
  0
VERTEX
  8
0
 10
3.22624
 20
0.168186
 30
0.0
 40
0.000111111
 41
0.000111111
  0
VERTEX
  8
0
 10
3.22103
 20
0.194119
 30
0.0
 40
0.000111111
 41
0.000111111
  0
VERTEX
  8
0
 10
3.22624
 20
0.220107
 30
0.0
 40
0.000111111
 41
0.000111111
  0
VERTEX
  8
0
 10
3.2405
 20
0.241319
 30
0.0
 40
0.000111111
 41
0.000111111
  0
VERTEX
  8
0
 10
3.26172
 20
0.255588
 30
0.0
 40
0.000111111
 41
0.000111111
  0
VERTEX
  8
0
 10
3.28771
 20
0.260796
 30
0.0
 40
0.000111111
 41
0.000111111
  0
SEQEND
 8
0
  0
ENDSEC
  0
EOF
